<svg xmlns="http://www.w3.org/2000/svg" width="13" height="16" viewBox="0 0 13 16" fill="none">
  <path fill-rule="evenodd" clip-rule="evenodd" d="M6.16867 0C4.14585 0 2.50602 1.63982 2.50602 3.66265V5.9759H1.54217C0.690452 5.9759 0 6.66636 0 7.51807V14.4578C0 15.3095 0.690452 16 1.54217 16H10.7952C11.6469 16 12.3373 15.3095 12.3373 14.4578V7.51807C12.3373 6.66636 11.6469 5.9759 10.7952 5.9759H9.83132V3.66265C9.83132 1.63982 8.1915 0 6.16867 0ZM8.6747 5.9759V3.66265C8.6747 2.27861 7.55271 1.15663 6.16867 1.15663C4.78464 1.15663 3.66265 2.27861 3.66265 3.66265V5.9759H8.6747ZM7.3253 10.2169C7.3253 10.645 7.0927 11.0188 6.74699 11.2188V12.3373C6.74699 12.6567 6.48807 12.9157 6.16867 12.9157C5.84928 12.9157 5.59036 12.6567 5.59036 12.3373V11.2188C5.24465 11.0188 5.01205 10.645 5.01205 10.2169C5.01205 9.57808 5.52989 9.06024 6.16867 9.06024C6.80746 9.06024 7.3253 9.57808 7.3253 10.2169Z" fill="#9A9A9A"/>
</svg>