<svg xmlns="http://www.w3.org/2000/svg" width="18" height="12" viewBox="0 0 18 12" fill="none">
  <path d="M8.87402 7.5C9.70245 7.5 10.374 6.82843 10.374 6C10.374 5.17157 9.70245 4.5 8.87402 4.5C8.0456 4.5 7.37402 5.17157 7.37402 6C7.37402 6.82843 8.0456 7.5 8.87402 7.5Z" fill="#9A9A9A"/>
  <path fill-rule="evenodd" clip-rule="evenodd" d="M0.584671 6.82502C0.254979 6.32441 0.254979 5.67558 0.584671 5.17497C1.66134 3.54015 4.49686 0 8.8739 0C13.2509 0 16.0865 3.54014 17.1631 5.17497C17.4928 5.67558 17.4928 6.32441 17.1631 6.82502C16.0865 8.45985 13.2509 12 8.8739 12C4.49686 12 1.66134 8.45985 0.584671 6.82502ZM8.87402 9C10.5309 9 11.874 7.65685 11.874 6C11.874 4.34315 10.5309 3 8.87402 3C7.21717 3 5.87402 4.34315 5.87402 6C5.87402 7.65685 7.21717 9 8.87402 9Z" fill="#9A9A9A"/>
</svg>