<svg xmlns="http://www.w3.org/2000/svg" width="20" height="20" viewBox="0 0 20 20" fill="none">
  <path d="M19.8055 8.0415H19V8H10V12H15.6515C14.827 14.3285 12.6115 16 10 16C6.6865 16 4 13.3135 4 10C4 6.6865 6.6865 4 10 4C11.5295 4 12.921 4.577 13.9805 5.5195L16.809 2.691C15.023 1.0265 12.634 0 10 0C4.4775 0 0 4.4775 0 10C0 15.5225 4.4775 20 10 20C15.5225 20 20 15.5225 20 10C20 9.3295 19.931 8.675 19.8055 8.0415Z" fill="#FFC107"/>
  <path d="M1.15625 5.3455L4.44175 7.755C5.33075 5.554 7.48375 4 10.0033 4C11.5328 4 12.9243 4.577 13.9838 5.5195L16.8123 2.691C15.0262 1.0265 12.6372 0 10.0033 0C6.16225 0 2.83125 2.1685 1.15625 5.3455Z" fill="#FF3D00"/>
  <path d="M9.99625 20.0003C12.5793 20.0003 14.9263 19.0118 16.7008 17.4043L13.6058 14.7853C12.5682 15.5749 11.3 16.0017 9.99625 16.0003C7.39525 16.0003 5.18675 14.3418 4.35475 12.0273L1.09375 14.5398C2.74875 17.7783 6.10975 20.0003 9.99625 20.0003Z" fill="#4CAF50"/>
  <path d="M19.8055 8.0415H19V8H10V12H15.6515C15.2571 13.1082 14.5467 14.0766 13.608 14.7855L13.6095 14.7845L16.7045 17.4035C16.4855 17.6025 20 15 20 10C20 9.3295 19.931 8.675 19.8055 8.0415Z" fill="#1976D2"/>
</svg>