<svg xmlns="http://www.w3.org/2000/svg" width="16" height="16" viewBox="0 0 16 16" fill="none">
  <path d="M8.78651 1.13643L1.37563 0.0147776C1.03172 -0.0389543 0.681073 0.0550764 0.418084 0.27672C0.155096 0.505081 0 0.834188 0 1.17673V15.3284C0 15.6978 0.303448 16 0.67433 16H2.8659V12.4738C2.8659 11.8223 3.39188 11.2985 4.04598 11.2985H5.7318C6.3859 11.2985 6.91188 11.8223 6.91188 12.4738V16H9.77778V2.29838C9.77778 1.72076 9.35969 1.23046 8.78651 1.13643ZM3.70881 9.78726H2.69732C2.41815 9.78726 2.19157 9.56158 2.19157 9.28352C2.19157 9.00546 2.41815 8.77978 2.69732 8.77978H3.70881C3.98798 8.77978 4.21456 9.00546 4.21456 9.28352C4.21456 9.56158 3.98798 9.78726 3.70881 9.78726ZM3.70881 7.77231H2.69732C2.41815 7.77231 2.19157 7.54664 2.19157 7.26858C2.19157 6.99051 2.41815 6.76484 2.69732 6.76484H3.70881C3.98798 6.76484 4.21456 6.99051 4.21456 7.26858C4.21456 7.54664 3.98798 7.77231 3.70881 7.77231ZM3.70881 5.75737H2.69732C2.41815 5.75737 2.19157 5.53169 2.19157 5.25363C2.19157 4.97557 2.41815 4.7499 2.69732 4.7499H3.70881C3.98798 4.7499 4.21456 4.97557 4.21456 5.25363C4.21456 5.53169 3.98798 5.75737 3.70881 5.75737ZM3.70881 3.74242H2.69732C2.41815 3.74242 2.19157 3.51675 2.19157 3.23869C2.19157 2.96063 2.41815 2.73495 2.69732 2.73495H3.70881C3.98798 2.73495 4.21456 2.96063 4.21456 3.23869C4.21456 3.51675 3.98798 3.74242 3.70881 3.74242ZM7.08046 9.78726H6.06897C5.78979 9.78726 5.56322 9.56158 5.56322 9.28352C5.56322 9.00546 5.78979 8.77978 6.06897 8.77978H7.08046C7.35963 8.77978 7.58621 9.00546 7.58621 9.28352C7.58621 9.56158 7.35963 9.78726 7.08046 9.78726ZM7.08046 7.77231H6.06897C5.78979 7.77231 5.56322 7.54664 5.56322 7.26858C5.56322 6.99051 5.78979 6.76484 6.06897 6.76484H7.08046C7.35963 6.76484 7.58621 6.99051 7.58621 7.26858C7.58621 7.54664 7.35963 7.77231 7.08046 7.77231ZM7.08046 5.75737H6.06897C5.78979 5.75737 5.56322 5.53169 5.56322 5.25363C5.56322 4.97557 5.78979 4.7499 6.06897 4.7499H7.08046C7.35963 4.7499 7.58621 4.97557 7.58621 5.25363C7.58621 5.53169 7.35963 5.75737 7.08046 5.75737ZM7.08046 3.74242H6.06897C5.78979 3.74242 5.56322 3.51675 5.56322 3.23869C5.56322 2.96063 5.78979 2.73495 6.06897 2.73495H7.08046C7.35963 2.73495 7.58621 2.96063 7.58621 3.23869C7.58621 3.51675 7.35963 3.74242 7.08046 3.74242Z" fill="#1E4483"/>
  <path d="M15.0624 7.21786L10.2227 6.22266V16.0004H14.8109C15.4668 16.0004 16.0004 15.4765 16.0004 14.8324V8.35923C16.0004 7.8079 15.6177 7.33867 15.0624 7.21786ZM13.4514 13.998H12.4318C12.1504 13.998 11.922 13.7738 11.922 13.4974C11.922 13.2211 12.1504 12.9968 12.4318 12.9968H13.4514C13.7328 12.9968 13.9612 13.2211 13.9612 13.4974C13.9612 13.7738 13.7328 13.998 13.4514 13.998ZM13.4514 11.9956H12.4318C12.1504 11.9956 11.922 11.7713 11.922 11.495C11.922 11.2187 12.1504 10.9944 12.4318 10.9944H13.4514C13.7328 10.9944 13.9612 11.2187 13.9612 11.495C13.9612 11.7713 13.7328 11.9956 13.4514 11.9956ZM13.4514 9.9932H12.4318C12.1504 9.9932 11.922 9.76893 11.922 9.49259C11.922 9.21626 12.1504 8.99199 12.4318 8.99199H13.4514C13.7328 8.99199 13.9612 9.21626 13.9612 9.49259C13.9612 9.76893 13.7328 9.9932 13.4514 9.9932Z" fill="#0556BF"/>
</svg>