<svg xmlns="http://www.w3.org/2000/svg" width="26" height="26" viewBox="0 0 26 26" fill="none">
  <path d="M13 0C5.85 0 0 5.85 0 13C0 20.15 5.85 26 13 26C20.15 26 26 20.15 26 13C26 5.85 20.15 0 13 0ZM13 23.4C7.28 23.4 2.6 18.72 2.6 13C2.6 7.28 7.28 2.6 13 2.6C18.72 2.6 23.4 7.28 23.4 13C23.4 18.72 18.72 23.4 13 23.4Z" fill="white"/>
  <path d="M12.9996 11.6998C12.2196 11.6998 11.6996 11.1798 11.6996 10.3998C11.6996 9.6198 12.2196 9.0998 12.9996 9.0998C13.5196 9.0998 13.9096 9.3598 14.1696 9.7498C14.5596 10.3998 15.3396 10.5298 15.9896 10.2698C16.6396 9.87981 16.7696 9.0998 16.5096 8.4498C15.9896 7.6698 15.3396 7.0198 14.4296 6.7598V5.8498C14.4296 5.0698 13.9096 4.5498 13.1296 4.5498C12.3496 4.5498 11.8296 5.0698 11.8296 5.8498V6.7598C10.1396 7.2798 9.09961 8.7098 9.09961 10.3998C9.09961 12.6098 10.7896 14.2998 12.9996 14.2998C13.7796 14.2998 14.2996 14.8198 14.2996 15.5998C14.2996 16.3798 13.7796 16.8998 12.9996 16.8998C12.4796 16.8998 12.0896 16.6398 11.8296 16.2498C11.4396 15.5998 10.6596 15.4698 10.0096 15.7298C9.35961 16.1198 9.22961 16.8998 9.48961 17.5498C10.0096 18.3298 10.6596 18.9798 11.5696 19.2398V20.1498C11.5696 20.9298 12.0896 21.4498 12.8696 21.4498C13.6496 21.4498 14.1696 20.9298 14.1696 20.1498V19.2398C15.7296 18.7198 16.7696 17.2898 16.7696 15.5998C16.8996 13.3898 15.2096 11.6998 12.9996 11.6998Z" fill="white"/>
</svg>