<svg xmlns="http://www.w3.org/2000/svg" width="17" height="16" viewBox="0 0 17 16" fill="none">
  <path d="M0 3.99476C0 2.63899 0.299238 1.63417 0.898787 0.980644C1.49798 0.326763 2.30979 0 3.33564 0C4.3955 0 5.22485 0.324629 5.8244 0.974955C6.42323 1.62528 6.72283 2.63188 6.72283 3.9944C6.72283 5.35016 6.42323 6.35499 5.8244 7.00851C5.22485 7.66239 4.41268 7.98916 3.3879 7.98916C2.32804 7.98916 1.49798 7.66417 0.898788 7.0142C0.299238 6.36352 0 5.35728 0 3.99476ZM2.27542 3.97413C2.27542 4.95869 2.38996 5.61933 2.61833 5.95604C2.79157 6.20387 3.02996 6.32761 3.33528 6.32761C3.64705 6.32761 3.88938 6.20387 4.06262 5.95604C4.28454 5.61932 4.39514 4.95833 4.39514 3.97413C4.39514 2.99029 4.28454 2.33321 4.06262 2.00253C3.88938 1.74831 3.64705 1.62101 3.33528 1.62101C3.02996 1.62101 2.79157 1.74511 2.61833 1.99222C2.38997 2.32965 2.27542 2.99029 2.27542 3.97413ZM5.23597 15.9687H4.24938C3.85899 15.9687 3.60571 15.5598 3.78164 15.2137L11.3678 0.286278C11.4569 0.110933 11.6378 0.000355408 11.8356 0.000355408H12.7639C13.1536 0.000355408 13.4069 0.407871 13.2324 0.753965L5.70444 15.6814C5.61561 15.8575 5.43429 15.9687 5.23597 15.9687ZM10.2772 11.9946C10.2772 10.6388 10.5764 9.63435 11.1756 8.98047C11.7748 8.32658 12.5941 7.99947 13.6336 7.99947C14.6795 7.99947 15.5024 8.32658 16.1016 8.98047C16.7008 9.63435 17 10.6388 17 11.9946C17 13.3571 16.7008 14.3651 16.1016 15.019C15.5024 15.6729 14.6902 16 13.6644 16C12.6045 16 11.7748 15.6729 11.1756 15.019C10.5764 14.3651 10.2772 13.3571 10.2772 11.9946ZM12.5526 11.9839C12.5526 12.9688 12.6664 13.6255 12.8951 13.9559C13.0684 14.2108 13.3075 14.3377 13.6125 14.3377C13.9242 14.3377 14.1626 14.2137 14.3298 13.9662C14.5585 13.6291 14.6723 12.9685 14.6723 11.9839C14.6723 11.0004 14.561 10.3398 14.3394 10.0027C14.1669 9.75489 13.9242 9.63115 13.6125 9.63115C13.3014 9.63115 13.0616 9.75489 12.8951 10.0027C12.6668 10.3398 12.5526 11.0004 12.5526 11.9839Z" fill="#F9F9F9"/>
</svg>