<svg xmlns="http://www.w3.org/2000/svg" width="15" height="20" viewBox="0 0 15 20" fill="none">
  <path d="M10.3462 5.85938C9.60388 5.85938 9 5.24605 9 4.49219V0H2.11538C0.948962 0 0 0.963789 0 2.14844V17.8516C0 19.0362 0.948962 20 2.11538 20H12.8846C14.051 20 15 19.0362 15 17.8516V5.85938H10.3462ZM3.15385 14.0625H5.95077C6.26938 14.0625 6.52769 14.3248 6.52769 14.6484C6.52769 14.972 6.26938 15.2344 5.95077 15.2344H3.15385C2.83523 15.2344 2.57692 14.972 2.57692 14.6484C2.57692 14.3248 2.83523 14.0625 3.15385 14.0625ZM2.57692 11.5234C2.57692 11.1998 2.83523 10.9375 3.15385 10.9375H11.6154C11.934 10.9375 12.1923 11.1998 12.1923 11.5234C12.1923 11.847 11.934 12.1094 11.6154 12.1094H3.15385C2.83523 12.1094 2.57692 11.847 2.57692 11.5234ZM11.6154 7.8125C11.934 7.8125 12.1923 8.07484 12.1923 8.39844C12.1923 8.72203 11.934 8.98438 11.6154 8.98438H3.15385C2.83523 8.98438 2.57692 8.72203 2.57692 8.39844C2.57692 8.07484 2.83523 7.8125 3.15385 7.8125H11.6154Z" fill="#1E4483"/>
  <path d="M11 4.78028C11 4.90143 11.0752 5 11.1676 5H15C14.908 4.77738 14.7897 4.5729 14.6475 4.39655L11.4149 0.387813C11.2895 0.232248 11.1497 0.102479 11 0V4.78028H11Z" fill="#0556BF"/>
</svg>