<svg xmlns="http://www.w3.org/2000/svg" width="18" height="20" viewBox="0 0 18 20" fill="none">
  <path d="M17.1429 3.33333H16.2857V0.833333C16.2857 0.373333 15.9017 0 15.4286 0H2.57143C1.15371 0 0.000857143 1.12083 0 2.49917V17.5C0 18.8783 1.15371 20 2.57143 20H17.1429C17.616 20 18 19.6267 18 19.1667V4.16667C18 3.70667 17.616 3.33333 17.1429 3.33333ZM12 11.875C12 12.4467 11.2757 12.7142 10.8831 12.2975L9 10.3L7.11686 12.2975C6.72429 12.7158 6 12.4458 6 11.875V5.83333C6 5.37333 6.384 5 6.85714 5H11.1429C11.616 5 12 5.37333 12 5.83333V11.875ZM14.5714 3.33333H2.57143C2.09914 3.33333 1.71429 2.95917 1.71429 2.5C1.71429 2.04083 2.09914 1.66667 2.57143 1.66667H14.5714V3.33333Z" fill="#0556BF"/>
</svg>