<svg xmlns="http://www.w3.org/2000/svg" width="17" height="19" viewBox="0 0 17 19" fill="none">
  <path d="M6.55208 0H1.23958C0.556042 0 0 0.603827 0 1.34611V4.80754C0 5.54982 0.556042 6.15365 1.23958 6.15365H6.55208C7.23563 6.15365 7.79167 5.54982 7.79167 4.80754V1.34611C7.79167 0.603827 7.23563 0 6.55208 0Z" fill="#0556BF"/>
  <path d="M6.55208 7.69141H1.23958C0.556042 7.69141 0 8.29523 0 9.03752V17.1142C0 17.8565 0.556042 18.4603 1.23958 18.4603H6.55208C7.23563 18.4603 7.79167 17.8565 7.79167 17.1142V9.03752C7.79167 8.29523 7.23563 7.69141 6.55208 7.69141Z" fill="#1E4483"/>
  <path d="M15.7606 12.3066H10.4481C9.76454 12.3066 9.2085 12.9105 9.2085 13.6528V17.1142C9.2085 17.8565 9.76454 18.4603 10.4481 18.4603H15.7606C16.4441 18.4603 17.0002 17.8565 17.0002 17.1142V13.6528C17.0002 12.9105 16.4441 12.3066 15.7606 12.3066Z" fill="#0556BF"/>
  <path d="M15.7606 0H10.4481C9.76454 0 9.2085 0.603827 9.2085 1.34611V9.42277C9.2085 10.1651 9.76454 10.7689 10.4481 10.7689H15.7606C16.4441 10.7689 17.0002 10.1651 17.0002 9.42277V1.34611C17.0002 0.603827 16.4441 0 15.7606 0Z" fill="#1E4483"/>
</svg>