<svg xmlns="http://www.w3.org/2000/svg" width="20" height="23" viewBox="0 0 20 23" fill="none">
  <path fill-rule="evenodd" clip-rule="evenodd" d="M16.1628 0C14.8953 0 13.8542 1.03649 13.8542 2.29845C13.8542 3.56041 14.8952 4.5984 16.1628 4.5984C17.4303 4.5984 18.4789 3.56041 18.4789 2.29845C18.4789 1.03649 17.4303 0 16.1628 0ZM6.92087 1.5283C4.76951 1.5283 2.90752 2.80059 2.04181 4.62387C2.12688 4.6179 2.20907 4.60432 2.29615 4.60439H11.7849C10.9168 2.79153 9.06458 1.5283 6.92087 1.5283ZM2.29615 6.13869C0.410032 6.13869 -0.69247 8.40885 0.487199 9.87554L6.15184 16.9147V20.71C6.15184 22.3881 7.98409 23.5118 9.49133 22.7642L12.5735 21.2359C13.3613 20.8453 13.8482 20.04 13.8482 19.1742V16.9147L19.5128 9.87554C20.6925 8.40885 19.59 6.13869 17.7038 6.13869H2.29615Z" fill="#0556BF"/>
</svg>