<svg xmlns="http://www.w3.org/2000/svg" width="18" height="21" viewBox="0 0 18 21" fill="none">
  <path d="M10.5299 14.6196L13.202 11.718H5.92059C5.14422 11.718 4.51514 11.0348 4.51514 10.1917C4.51514 9.34862 5.14422 8.66548 5.92059 8.66548H13.2014L10.5294 5.7638C9.98067 5.16795 9.98067 4.20154 10.5294 3.60509C11.0781 3.00924 11.968 3.00924 12.5172 3.60509L17.5887 9.11236C18.1374 9.7082 18.1374 10.6746 17.5887 11.2711L12.5172 16.7783C11.9686 17.3742 11.0786 17.3742 10.5294 16.7783C9.98067 16.1825 9.98067 15.2161 10.5294 14.6196H10.5299Z" fill="#CD001A"/>
  <path d="M8.15164 1.64538C8.15164 0.802284 7.52256 0.119141 6.74619 0.119141H2.81091C1.25873 0.119141 0 1.48604 0 3.17162V17.213C0 18.8986 1.25873 20.2655 2.81091 20.2655H6.74619C7.52256 20.2655 8.15164 19.5823 8.15164 18.7392C8.15164 17.8961 7.52256 17.213 6.74619 17.213H3.51364C3.12573 17.213 2.81091 16.8711 2.81091 16.4499V3.93473C2.81091 3.51349 3.12573 3.17162 3.51364 3.17162H6.74619C7.52256 3.17162 8.15164 2.48847 8.15164 1.64538Z" fill="#CD001A"/>
</svg>