<svg xmlns="http://www.w3.org/2000/svg" width="21" height="23" viewBox="0 0 21 23" fill="none">
  <path d="M18.9 19.9494V12.191L10.5 5.54102L2.09997 12.191V19.9493H0V22.166H21V19.9493H18.9V19.9494ZM9.44999 17.7327H7.34998V15.516H9.44999V17.7327ZM9.44999 13.2994H7.34998V11.0827H9.44999V13.2994ZM13.65 17.7327H11.55V15.516H13.65V17.7327ZM13.65 13.2994H11.55V11.0827H13.65V13.2994Z" fill="#0556BF"/>
  <path d="M20.5746 7.97577L11.1147 0.221567C10.9045 0.110809 10.6943 0 10.4841 0C10.2738 0 10.0636 0.110757 9.85341 0.221567L4.17751 4.8741V2.21551C4.17751 1.55086 3.75709 1.10778 3.12643 1.10778C2.49577 1.10778 2.07535 1.55086 2.07535 2.21551V6.53572L0.393571 7.97577C-0.0268504 8.3081 -0.131993 9.0835 0.183335 9.52664C0.498664 10.0805 1.23441 10.0805 1.65488 9.7482L10.4841 2.54783L19.3133 9.7482C19.7337 10.0805 20.4695 10.0805 20.7848 9.52664C21.1001 9.08356 21.1001 8.30815 20.5746 7.97577Z" fill="#1E4483"/>
</svg>