<svg xmlns="http://www.w3.org/2000/svg" width="17" height="17" viewBox="0 0 17 17" fill="none">
  <path fill-rule="evenodd" clip-rule="evenodd" d="M5.1 0C2.28335 0 0 2.28335 0 5.1V11.9C0 14.7166 2.28335 17 5.1 17H11.9C14.7166 17 17 14.7166 17 11.9V5.1C17 2.28335 14.7166 0 11.9 0H5.1ZM6.23333 5.1C6.23333 4.78703 6.48703 4.53333 6.8 4.53333H13.8833C14.1963 4.53333 14.45 4.78703 14.45 5.1C14.45 5.41297 14.1963 5.66667 13.8833 5.66667H6.8C6.48703 5.66667 6.23333 5.41297 6.23333 5.1ZM6.23333 8.5C6.23333 8.18703 6.48703 7.93333 6.8 7.93333H13.8833C14.1963 7.93333 14.45 8.18703 14.45 8.5C14.45 8.81297 14.1963 9.06667 13.8833 9.06667H6.8C6.48703 9.06667 6.23333 8.81297 6.23333 8.5ZM6.23333 11.9C6.23333 11.587 6.48703 11.3333 6.8 11.3333H13.8833C14.1963 11.3333 14.45 11.587 14.45 11.9C14.45 12.213 14.1963 12.4667 13.8833 12.4667H6.8C6.48703 12.4667 6.23333 12.213 6.23333 11.9ZM5.80289 4.34755C6.01327 4.11584 5.99593 3.75745 5.76422 3.54711C5.53251 3.33673 5.17412 3.35407 4.96377 3.58578L3.84007 4.82361L3.53623 4.48891C3.32588 4.2572 2.96749 4.23986 2.73578 4.45023C2.50407 4.66058 2.48673 5.01897 2.69711 5.25068L3.42051 6.04755C3.5279 6.16587 3.68027 6.23333 3.84007 6.23333C3.99987 6.23333 4.15222 6.16587 4.25963 6.04755L5.80289 4.34755ZM5.76422 6.94711C5.99593 7.15745 6.01327 7.51584 5.80289 7.74755L4.25963 9.44755C4.15222 9.56587 3.99987 9.63333 3.84007 9.63333C3.68027 9.63333 3.5279 9.56587 3.42051 9.44755L2.69711 8.65068C2.48673 8.41897 2.50407 8.06058 2.73578 7.85023C2.96749 7.63986 3.32588 7.6572 3.53623 7.88891L3.84007 8.22361L4.96377 6.98578C5.17412 6.75407 5.53251 6.73673 5.76422 6.94711ZM5.80289 11.1476C6.01327 10.9158 5.99593 10.5575 5.76422 10.3471C5.53251 10.1367 5.17412 10.1541 4.96377 10.3858L3.84007 11.6236L3.53623 11.2889C3.32588 11.0572 2.96749 11.0399 2.73578 11.2502C2.50407 11.4606 2.48673 11.819 2.69711 12.0507L3.42051 12.8476C3.5279 12.9659 3.68027 13.0333 3.84007 13.0333C3.99987 13.0333 4.15222 12.9659 4.25963 12.8476L5.80289 11.1476Z" fill="#1E4483"/>
</svg>