<svg xmlns="http://www.w3.org/2000/svg" width="21" height="18" viewBox="0 0 21 18" fill="none">
  <path fill-rule="evenodd" clip-rule="evenodd" d="M16.0659 8.82031C15.086 8.82031 14.1662 9.01802 13.3926 9.35326C16.1003 10.1355 18.0172 12.0094 18.0687 14.2013C19.4785 14.0208 20.9999 13.4879 20.9999 12.0352C20.9999 10.2902 18.7392 8.82031 16.0659 8.82031Z" fill="#1E4483"/>
  <path fill-rule="evenodd" clip-rule="evenodd" d="M16.04 7.58405H16.0572C17.8881 7.58405 19.3838 6.08839 19.3838 4.26606C19.3838 2.43514 17.8881 0.939453 16.0572 0.939453C15.6962 0.939453 15.3524 0.999624 15.0257 1.10277C15.6188 1.97956 15.9627 3.03685 15.9627 4.1801C15.9713 5.34055 15.6102 6.45801 14.9312 7.38634C15.2836 7.51528 15.6532 7.58405 16.04 7.58405Z" fill="#0556BF"/>
  <path fill-rule="evenodd" clip-rule="evenodd" d="M7.59876 9.34466C6.82513 9.01802 5.90537 8.82031 4.93404 8.82031C2.26072 8.82031 0 10.2902 0 12.0352C0 13.4879 1.51287 14.0122 2.9226 14.2013C2.96558 12.0094 4.88246 10.1355 7.59876 9.34466Z" fill="#1E4483"/>
  <path fill-rule="evenodd" clip-rule="evenodd" d="M4.93374 7.58405H4.95952C5.34634 7.58405 5.71596 7.51528 6.06839 7.38634C5.41511 6.4924 5.02829 5.38353 5.02829 4.1801C5.02829 3.03685 5.37213 1.97956 5.96524 1.10277C5.6386 0.999624 5.29476 0.939453 4.93374 0.939453C3.10281 0.939453 1.61572 2.43514 1.61572 4.26606C1.61572 6.08839 3.10281 7.58405 4.93374 7.58405Z" fill="#0556BF"/>
  <path fill-rule="evenodd" clip-rule="evenodd" d="M10.4947 10.2266C7.08993 10.2266 4.21289 12.0798 4.21289 14.2735C4.21289 17.1102 8.94061 17.1101 10.4947 17.1101C13.1921 17.1101 16.7783 16.8179 16.7783 14.2916C16.7783 12.0876 13.9004 10.2266 10.4947 10.2266Z" fill="#1E4483"/>
  <path fill-rule="evenodd" clip-rule="evenodd" d="M10.4961 8.36207H10.5245C11.6376 8.35863 12.6829 7.9211 13.4668 7.13114C14.2516 6.34119 14.6814 5.29335 14.6771 4.1819C14.6771 1.87562 12.8024 0 10.4961 0C8.19068 0 6.31592 1.87562 6.31592 4.1819C6.31592 6.48646 8.19068 8.36207 10.4961 8.36207Z" fill="#0556BF"/>
</svg>