<svg xmlns="http://www.w3.org/2000/svg" width="17" height="17" viewBox="0 0 17 17" fill="none">
  <path d="M11.064 1.93579V1.42392C11.064 0.638861 10.4251 0 9.63986 0H1.42409C0.638861 0 0 0.638861 0 1.42392V1.93579H11.064Z" fill="#1E4483"/>
  <path d="M0 3.29492V6.05504C0 6.84045 0.638861 7.47914 1.42409 7.47914H9.63986C10.4251 7.47914 11.064 6.84028 11.064 6.05504V3.29492H0ZM1.84518 6.02325V4.66325H6.10097V6.02325H1.84518Z" fill="#1E4483"/>
  <path d="M5.32475 14.5716L2.89527 12.1421V13.8916H2.82727C2.01824 13.8916 1.36 13.2335 1.36 12.4245V9.06055H0V12.4245C0 13.9834 1.2682 15.2516 2.82727 15.2516H2.89527V17.0011L5.32475 14.5716Z" fill="#0556BF"/>
  <path d="M17 11.4553V10.9435C17 10.1582 16.3611 9.51953 15.5759 9.51953H7.36013C6.5749 9.51953 5.93604 10.1584 5.93604 10.9435V11.4553H17Z" fill="#1E4483"/>
  <path d="M5.93604 12.8145V15.5746C5.93604 16.3598 6.5749 16.9987 7.36013 16.9987H15.5759C16.3611 16.9987 17 16.3598 17 15.5746V12.8145H5.93604ZM7.78105 15.5426V14.1826H10.8468V15.5426H7.78105Z" fill="#1E4483"/>
  <path d="M11.6753 2.42947L14.1048 4.85894V3.10947H14.1728C14.9818 3.10947 15.64 3.76754 15.64 4.57657V7.94054H17V4.57657C17 3.01767 15.7318 1.74947 14.1728 1.74947H14.1048V0L11.6753 2.42947Z" fill="#0556BF"/>
</svg>