<svg xmlns="http://www.w3.org/2000/svg" width="15" height="19" viewBox="0 0 15 19" fill="none">
  <path d="M7.5 9C8.7364 9 9.80702 8.55654 10.6818 7.6816C11.5566 6.8068 12 5.73643 12 4.49986C12 3.26371 11.5566 2.1932 10.6816 1.31811C9.80673 0.443457 8.73625 0 7.5 0C6.26346 0 5.19313 0.443457 4.31836 1.31826C3.44359 2.19305 3 3.26357 3 4.49986C3 5.73643 3.44359 6.80695 4.3185 7.68174C5.19341 8.5564 6.26389 9 7.5 9Z" fill="#0556BF"/>
  <path d="M14.9636 14.5305C14.9394 14.1536 14.8903 13.7425 14.818 13.3083C14.745 12.8709 14.651 12.4573 14.5386 12.0794C14.4224 11.6888 14.2644 11.303 14.069 10.9333C13.8663 10.5496 13.6282 10.2155 13.361 9.94053C13.0816 9.65289 12.7395 9.42164 12.3439 9.25295C11.9496 9.08515 11.5127 9.00015 11.0454 9.00015C10.8619 9.00015 10.6844 9.08117 10.3416 9.32128C10.1306 9.4693 9.88386 9.6405 9.60843 9.82984C9.37291 9.99129 9.05385 10.1426 8.65977 10.2795C8.27528 10.4134 7.8849 10.4813 7.49959 10.4813C7.11428 10.4813 6.72403 10.4134 6.33914 10.2795C5.94546 10.1427 5.62641 9.99144 5.39116 9.82999C5.11833 9.64241 4.87143 9.47122 4.65731 9.32113C4.31493 9.08102 4.1373 9 3.95376 9C3.48629 9 3.04955 9.08515 2.65546 9.2531C2.26014 9.42149 1.9179 9.65274 1.63821 9.94067C1.37114 10.2158 1.13288 10.5497 0.930419 10.9333C0.735227 11.303 0.577208 11.6886 0.460888 12.0795C0.348547 12.4575 0.254586 12.8709 0.181612 13.3083C0.109324 13.7419 0.0602173 14.1532 0.0359383 14.531C0.0120709 14.9011 0 15.2853 0 15.6733C0 16.683 0.298343 17.5004 0.886662 18.1033C1.46771 18.6982 2.23654 19 3.17149 19H11.8285C12.7635 19 13.532 18.6983 14.1132 18.1033C14.7017 17.5009 15 16.6833 15 15.6731C14.9999 15.2834 14.9877 14.8989 14.9636 14.5305Z" fill="#1E4483"/>
</svg>