<svg xmlns="http://www.w3.org/2000/svg" width="39" height="24" viewBox="0 0 39 24" fill="none">
  <path d="M7.5 9C8.7364 9 9.80702 8.55654 10.6818 7.6816C11.5566 6.8068 12 5.73643 12 4.49986C12 3.26371 11.5566 2.1932 10.6816 1.31811C9.80673 0.443457 8.73625 0 7.5 0C6.26346 0 5.19313 0.443457 4.31836 1.31826C3.44359 2.19305 3 3.26357 3 4.49986C3 5.73643 3.44359 6.80695 4.3185 7.68174C5.19341 8.5564 6.26389 9 7.5 9Z" fill="#EB6450"/>
  <path d="M14.9636 14.5305C14.9394 14.1536 14.8903 13.7425 14.818 13.3083C14.745 12.8709 14.651 12.4573 14.5386 12.0794C14.4224 11.6888 14.2644 11.303 14.069 10.9333C13.8663 10.5496 13.6282 10.2155 13.361 9.94053C13.0816 9.65289 12.7395 9.42164 12.3439 9.25295C11.9496 9.08515 11.5127 9.00015 11.0454 9.00015C10.8619 9.00015 10.6844 9.08117 10.3416 9.32128C10.1306 9.4693 9.88386 9.6405 9.60843 9.82984C9.37291 9.99129 9.05385 10.1426 8.65977 10.2795C8.27528 10.4134 7.8849 10.4813 7.49959 10.4813C7.11428 10.4813 6.72403 10.4134 6.33914 10.2795C5.94546 10.1427 5.62641 9.99144 5.39116 9.82999C5.11833 9.64241 4.87143 9.47122 4.65731 9.32113C4.31493 9.08102 4.1373 9 3.95376 9C3.48629 9 3.04955 9.08515 2.65546 9.2531C2.26014 9.42149 1.9179 9.65274 1.63821 9.94067C1.37114 10.2158 1.13288 10.5497 0.930419 10.9333C0.735227 11.303 0.577208 11.6886 0.460888 12.0795C0.348547 12.4575 0.254586 12.8709 0.181612 13.3083C0.109324 13.7419 0.0602173 14.1532 0.0359383 14.531C0.0120709 14.9011 0 15.2853 0 15.6733C0 16.683 0.298343 17.5004 0.886662 18.1033C1.46771 18.6982 2.23654 19 3.17149 19H11.8285C12.7635 19 13.532 18.6983 14.1132 18.1033C14.7017 17.5009 15 16.6833 15 15.6731C14.9999 15.2834 14.9877 14.8989 14.9636 14.5305Z" fill="#B5B5B5"/>
  <path d="M7.5 9C8.7364 9 9.80702 8.55654 10.6818 7.6816C11.5566 6.8068 12 5.73643 12 4.49986C12 3.26371 11.5566 2.1932 10.6816 1.31811C9.80673 0.443457 8.73625 0 7.5 0C6.26346 0 5.19313 0.443457 4.31836 1.31826C3.44359 2.19305 3 3.26357 3 4.49986C3 5.73643 3.44359 6.80695 4.3185 7.68174C5.19341 8.5564 6.26389 9 7.5 9Z" fill="#00A370"/>
  <path d="M14.9636 14.5305C14.9394 14.1536 14.8903 13.7425 14.818 13.3083C14.745 12.8709 14.651 12.4573 14.5386 12.0794C14.4224 11.6888 14.2644 11.303 14.069 10.9333C13.8663 10.5496 13.6282 10.2155 13.361 9.94053C13.0816 9.65289 12.7395 9.42164 12.3439 9.25295C11.9496 9.08515 11.5127 9.00015 11.0454 9.00015C10.8619 9.00015 10.6844 9.08117 10.3416 9.32128C10.1306 9.4693 9.88386 9.6405 9.60843 9.82984C9.37291 9.99129 9.05385 10.1426 8.65977 10.2795C8.27528 10.4134 7.8849 10.4813 7.49959 10.4813C7.11428 10.4813 6.72403 10.4134 6.33914 10.2795C5.94546 10.1427 5.62641 9.99144 5.39116 9.82999C5.11833 9.64241 4.87143 9.47122 4.65731 9.32113C4.31493 9.08102 4.1373 9 3.95376 9C3.48629 9 3.04955 9.08515 2.65546 9.2531C2.26014 9.42149 1.9179 9.65274 1.63821 9.94067C1.37114 10.2158 1.13288 10.5497 0.930419 10.9333C0.735227 11.303 0.577208 11.6886 0.460888 12.0795C0.348547 12.4575 0.254586 12.8709 0.181612 13.3083C0.109324 13.7419 0.0602173 14.1532 0.0359383 14.531C0.0120709 14.9011 0 15.2853 0 15.6733C0 16.683 0.298343 17.5004 0.886662 18.1033C1.46771 18.6982 2.23654 19 3.17149 19H11.8285C12.7635 19 13.532 18.6983 14.1132 18.1033C14.7017 17.5009 15 16.6833 15 15.6731C14.9999 15.2834 14.9877 14.8989 14.9636 14.5305Z" fill="#B5B5B5"/>
  <path d="M31.5 9C32.7364 9 33.807 8.55654 34.6818 7.6816C35.5566 6.8068 36 5.73643 36 4.49986C36 3.26371 35.5566 2.1932 34.6816 1.31811C33.8067 0.443457 32.7363 0 31.5 0C30.2635 0 29.1931 0.443457 28.3184 1.31826C27.4436 2.19305 27 3.26357 27 4.49986C27 5.73643 27.4436 6.80695 28.3185 7.68174C29.1934 8.5564 30.2639 9 31.5 9Z" fill="#EB6450"/>
  <path d="M38.9636 14.5305C38.9394 14.1536 38.8903 13.7425 38.818 13.3083C38.745 12.8709 38.651 12.4573 38.5386 12.0794C38.4224 11.6888 38.2644 11.303 38.069 10.9333C37.8663 10.5496 37.6282 10.2155 37.361 9.94053C37.0816 9.65289 36.7395 9.42164 36.3439 9.25295C35.9496 9.08515 35.5127 9.00015 35.0454 9.00015C34.8619 9.00015 34.6844 9.08117 34.3416 9.32128C34.1306 9.4693 33.8839 9.6405 33.6084 9.82984C33.3729 9.99129 33.0539 10.1426 32.6598 10.2795C32.2753 10.4134 31.8849 10.4813 31.4996 10.4813C31.1143 10.4813 30.724 10.4134 30.3391 10.2795C29.9455 10.1427 29.6264 9.99144 29.3912 9.82999C29.1183 9.64241 28.8714 9.47122 28.6573 9.32113C28.3149 9.08102 28.1373 9 27.9538 9C27.4863 9 27.0495 9.08515 26.6555 9.2531C26.2601 9.42149 25.9179 9.65274 25.6382 9.94067C25.3711 10.2158 25.1329 10.5497 24.9304 10.9333C24.7352 11.303 24.5772 11.6886 24.4609 12.0795C24.3485 12.4575 24.2546 12.8709 24.1816 13.3083C24.1093 13.7419 24.0602 14.1532 24.0359 14.531C24.0121 14.9011 24 15.2853 24 15.6733C24 16.683 24.2983 17.5004 24.8867 18.1033C25.4677 18.6982 26.2365 19 27.1715 19H35.8285C36.7635 19 37.532 18.6983 38.1132 18.1033C38.7017 17.5009 39 16.6833 39 15.6731C38.9999 15.2834 38.9877 14.8989 38.9636 14.5305Z" fill="#B5B5B5"/>
  <path d="M31.5 9C32.7364 9 33.807 8.55654 34.6818 7.6816C35.5566 6.8068 36 5.73643 36 4.49986C36 3.26371 35.5566 2.1932 34.6816 1.31811C33.8067 0.443457 32.7363 0 31.5 0C30.2635 0 29.1931 0.443457 28.3184 1.31826C27.4436 2.19305 27 3.26357 27 4.49986C27 5.73643 27.4436 6.80695 28.3185 7.68174C29.1934 8.5564 30.2639 9 31.5 9Z" fill="#00A370"/>
  <path d="M38.9636 14.5305C38.9394 14.1536 38.8903 13.7425 38.818 13.3083C38.745 12.8709 38.651 12.4573 38.5386 12.0794C38.4224 11.6888 38.2644 11.303 38.069 10.9333C37.8663 10.5496 37.6282 10.2155 37.361 9.94053C37.0816 9.65289 36.7395 9.42164 36.3439 9.25295C35.9496 9.08515 35.5127 9.00015 35.0454 9.00015C34.8619 9.00015 34.6844 9.08117 34.3416 9.32128C34.1306 9.4693 33.8839 9.6405 33.6084 9.82984C33.3729 9.99129 33.0539 10.1426 32.6598 10.2795C32.2753 10.4134 31.8849 10.4813 31.4996 10.4813C31.1143 10.4813 30.724 10.4134 30.3391 10.2795C29.9455 10.1427 29.6264 9.99144 29.3912 9.82999C29.1183 9.64241 28.8714 9.47122 28.6573 9.32113C28.3149 9.08102 28.1373 9 27.9538 9C27.4863 9 27.0495 9.08515 26.6555 9.2531C26.2601 9.42149 25.9179 9.65274 25.6382 9.94067C25.3711 10.2158 25.1329 10.5497 24.9304 10.9333C24.7352 11.303 24.5772 11.6886 24.4609 12.0795C24.3485 12.4575 24.2546 12.8709 24.1816 13.3083C24.1093 13.7419 24.0602 14.1532 24.0359 14.531C24.0121 14.9011 24 15.2853 24 15.6733C24 16.683 24.2983 17.5004 24.8867 18.1033C25.4677 18.6982 26.2365 19 27.1715 19H35.8285C36.7635 19 37.532 18.6983 38.1132 18.1033C38.7017 17.5009 39 16.6833 39 15.6731C38.9999 15.2834 38.9877 14.8989 38.9636 14.5305Z" fill="#B5B5B5"/>
  <path d="M19.5 14C20.7364 14 21.807 13.5565 22.6818 12.6816C23.5566 11.8068 24 10.7364 24 9.49986C24 8.26371 23.5566 7.1932 22.6816 6.31811C21.8067 5.44346 20.7363 5 19.5 5C18.2635 5 17.1931 5.44346 16.3184 6.31826C15.4436 7.19305 15 8.26357 15 9.49986C15 10.7364 15.4436 11.8069 16.3185 12.6817C17.1934 13.5564 18.2639 14 19.5 14Z" fill="#EB6450"/>
  <path d="M26.9636 19.5305C26.9394 19.1536 26.8903 18.7425 26.818 18.3083C26.745 17.8709 26.651 17.4573 26.5386 17.0794C26.4224 16.6888 26.2644 16.303 26.069 15.9333C25.8663 15.5496 25.6282 15.2155 25.361 14.9405C25.0816 14.6529 24.7395 14.4216 24.3439 14.253C23.9496 14.0852 23.5127 14.0001 23.0454 14.0001C22.8619 14.0001 22.6844 14.0812 22.3416 14.3213C22.1306 14.4693 21.8839 14.6405 21.6084 14.8298C21.3729 14.9913 21.0539 15.1426 20.6598 15.2795C20.2753 15.4134 19.8849 15.4813 19.4996 15.4813C19.1143 15.4813 18.724 15.4134 18.3391 15.2795C17.9455 15.1427 17.6264 14.9914 17.3912 14.83C17.1183 14.6424 16.8714 14.4712 16.6573 14.3211C16.3149 14.081 16.1373 14 15.9538 14C15.4863 14 15.0495 14.0852 14.6555 14.2531C14.2601 14.4215 13.9179 14.6527 13.6382 14.9407C13.3711 15.2158 13.1329 15.5497 12.9304 15.9333C12.7352 16.303 12.5772 16.6886 12.4609 17.0795C12.3485 17.4575 12.2546 17.8709 12.1816 18.3083C12.1093 18.7419 12.0602 19.1532 12.0359 19.531C12.0121 19.9011 12 20.2853 12 20.6733C12 21.683 12.2983 22.5004 12.8867 23.1033C13.4677 23.6982 14.2365 24 15.1715 24H23.8285C24.7635 24 25.532 23.6983 26.1132 23.1033C26.7017 22.5009 27 21.6833 27 20.6731C26.9999 20.2834 26.9877 19.8989 26.9636 19.5305Z" fill="#B5B5B5"/>
  <path d="M19.5 14C20.7364 14 21.807 13.5565 22.6818 12.6816C23.5566 11.8068 24 10.7364 24 9.49986C24 8.26371 23.5566 7.1932 22.6816 6.31811C21.8067 5.44346 20.7363 5 19.5 5C18.2635 5 17.1931 5.44346 16.3184 6.31826C15.4436 7.19305 15 8.26357 15 9.49986C15 10.7364 15.4436 11.8069 16.3185 12.6817C17.1934 13.5564 18.2639 14 19.5 14Z" fill="#00A370"/>
  <path d="M26.9636 19.5305C26.9394 19.1536 26.8903 18.7425 26.818 18.3083C26.745 17.8709 26.651 17.4573 26.5386 17.0794C26.4224 16.6888 26.2644 16.303 26.069 15.9333C25.8663 15.5496 25.6282 15.2155 25.361 14.9405C25.0816 14.6529 24.7395 14.4216 24.3439 14.253C23.9496 14.0852 23.5127 14.0001 23.0454 14.0001C22.8619 14.0001 22.6844 14.0812 22.3416 14.3213C22.1306 14.4693 21.8839 14.6405 21.6084 14.8298C21.3729 14.9913 21.0539 15.1426 20.6598 15.2795C20.2753 15.4134 19.8849 15.4813 19.4996 15.4813C19.1143 15.4813 18.724 15.4134 18.3391 15.2795C17.9455 15.1427 17.6264 14.9914 17.3912 14.83C17.1183 14.6424 16.8714 14.4712 16.6573 14.3211C16.3149 14.081 16.1373 14 15.9538 14C15.4863 14 15.0495 14.0852 14.6555 14.2531C14.2601 14.4215 13.9179 14.6527 13.6382 14.9407C13.3711 15.2158 13.1329 15.5497 12.9304 15.9333C12.7352 16.303 12.5772 16.6886 12.4609 17.0795C12.3485 17.4575 12.2546 17.8709 12.1816 18.3083C12.1093 18.7419 12.0602 19.1532 12.0359 19.531C12.0121 19.9011 12 20.2853 12 20.6733C12 21.683 12.2983 22.5004 12.8867 23.1033C13.4677 23.6982 14.2365 24 15.1715 24H23.8285C24.7635 24 25.532 23.6983 26.1132 23.1033C26.7017 22.5009 27 21.6833 27 20.6731C26.9999 20.2834 26.9877 19.8989 26.9636 19.5305Z" fill="#B5B5B5"/>
</svg>