<svg xmlns="http://www.w3.org/2000/svg" width="16" height="21" viewBox="0 0 16 21" fill="none">
  <path d="M11.0359 6.15234C10.2441 6.15234 9.6 5.50836 9.6 4.7168V0H2.25641C1.01223 0 0 1.01198 0 2.25586V18.7441C0 19.988 1.01223 21 2.25641 21H13.7436C14.9878 21 16 19.988 16 18.7441V6.15234H11.0359ZM3.3641 14.7656H6.34749C6.68734 14.7656 6.96287 15.0411 6.96287 15.3809C6.96287 15.7206 6.68734 15.9961 6.34749 15.9961H3.3641C3.02425 15.9961 2.74872 15.7206 2.74872 15.3809C2.74872 15.0411 3.02425 14.7656 3.3641 14.7656ZM2.74872 12.0996C2.74872 11.7598 3.02425 11.4844 3.3641 11.4844H12.3897C12.7296 11.4844 13.0051 11.7598 13.0051 12.0996C13.0051 12.4394 12.7296 12.7148 12.3897 12.7148H3.3641C3.02425 12.7148 2.74872 12.4394 2.74872 12.0996ZM12.3897 8.20312C12.7296 8.20312 13.0051 8.47859 13.0051 8.81836C13.0051 9.15813 12.7296 9.43359 12.3897 9.43359H3.3641C3.02425 9.43359 2.74872 9.15813 2.74872 8.81836C2.74872 8.47859 3.02425 8.20312 3.3641 8.20312H12.3897Z" fill="#0556BF"/>
  <path d="M11 4.78028C11 4.90143 11.094 5 11.2095 5H16C15.885 4.77738 15.7371 4.5729 15.5594 4.39655L11.5186 0.387813C11.3618 0.232248 11.1872 0.102479 11 0V4.78028H11Z" fill="#1E4483"/>
</svg>