<svg xmlns="http://www.w3.org/2000/svg" width="21" height="21" viewBox="0 0 21 21" fill="none">
  <path fill-rule="evenodd" clip-rule="evenodd" d="M5.12695 0H15.873C18.6969 0 21 2.30311 21 5.12695V15.873C21 18.6969 18.6969 21 15.873 21H5.12695C2.30311 21 0 18.6969 0 15.873V5.12695C0 2.30311 2.30311 0 5.12695 0ZM16.6523 5.30886C16.6523 5.05391 16.551 4.80942 16.3708 4.62913C16.1905 4.44884 15.946 4.34751 15.6911 4.34741H5.30906C5.05515 4.34907 4.81221 4.4511 4.63325 4.63123C4.45429 4.81136 4.35385 5.05496 4.35385 5.30888C4.35385 5.56279 4.45429 5.8064 4.63325 5.98653C4.81221 6.16666 5.05515 6.26869 5.30906 6.27035H13.3703L4.62935 15.0108C4.53998 15.1 4.46907 15.206 4.42067 15.3226C4.37227 15.4393 4.34733 15.5643 4.34728 15.6906C4.34723 15.8169 4.37206 15.942 4.42036 16.0587C4.46867 16.1753 4.53949 16.2814 4.62879 16.3707C4.71809 16.46 4.82411 16.5308 4.94079 16.5791C5.05748 16.6274 5.18254 16.6523 5.30883 16.6523C5.43512 16.6522 5.56017 16.6273 5.67682 16.5789C5.79348 16.5305 5.89945 16.4596 5.98869 16.3702L14.7298 7.62981V15.6911C14.7298 15.9461 14.8311 16.1906 15.0113 16.3709C15.1916 16.5511 15.4361 16.6524 15.6911 16.6524C15.946 16.6524 16.1905 16.5511 16.3708 16.3709C16.5511 16.1906 16.6523 15.9461 16.6523 15.6911V5.30886Z" fill="#00A370"/>
</svg>