<svg xmlns="http://www.w3.org/2000/svg" width="18" height="22" viewBox="0 0 18 22" fill="none">
  <path d="M14.5986 3.87951H17.6393L13.7598 0V3.0407C13.7598 3.50205 14.1372 3.87951 14.5986 3.87951Z" fill="#1E4483"/>
  <path d="M13.2399 3.0407V0H3.12803C1.85303 0 0.821289 1.03174 0.821289 2.30674V19.1669C0.821289 20.4419 1.85303 21.4736 3.12803 21.4736H15.3328C16.6078 21.4736 17.6395 20.4419 17.6395 19.1669V4.39958H14.5988C13.8481 4.39958 13.2399 3.79144 13.2399 3.0407ZM4.98181 9.10532L7.60729 6.11076C7.75828 5.9388 7.97637 5.84234 8.20285 5.83814C8.22382 5.83814 8.24479 5.83814 8.26576 5.84234C8.51741 5.86331 8.74389 5.99752 8.8781 6.21142L10.216 8.33361L11.1723 7.30607C10.8032 7.0712 10.6941 6.58049 10.929 6.21142C11.0758 5.98074 11.3274 5.84234 11.6 5.84234H12.896C13.3322 5.85073 13.6845 6.21142 13.6761 6.6476C13.6761 6.68115 13.6719 6.7147 13.6677 6.74406V7.90582C13.6677 8.3462 13.3112 8.6985 12.875 8.6985C12.6528 8.6985 12.4389 8.60623 12.2879 8.43847L10.6774 10.1706C10.5264 10.3342 10.3167 10.4223 10.0944 10.4265C10.0692 10.4265 10.044 10.4265 10.0189 10.4223C9.77563 10.3971 9.55334 10.2629 9.42332 10.0532L8.10219 7.95615L6.17711 10.1496C5.88772 10.481 5.38444 10.5103 5.0573 10.2209C4.72597 9.93155 4.69241 9.43246 4.98181 9.10532ZM10.1112 16.705C10.1112 17.3173 9.61206 17.8164 8.99972 17.8164H5.35088C4.73855 17.8164 4.23946 17.3173 4.23946 16.705C4.23946 16.0926 4.73436 15.5935 5.35088 15.5935H8.99972C9.61206 15.5935 10.1112 16.0926 10.1112 16.705ZM13.1099 14.0417H5.35088C4.73855 14.0417 4.23946 13.5426 4.23946 12.9303C4.23946 12.318 4.73855 11.8189 5.35088 11.8189H13.1099C13.7222 11.8189 14.2213 12.318 14.2213 12.9303C14.2213 13.5426 13.7222 14.0417 13.1099 14.0417Z" fill="#0556BF"/>
</svg>