<svg width="102" height="17" viewBox="0 0 102 17" fill="none" xmlns="http://www.w3.org/2000/svg">
<path d="M17.9593 6.30501C17.9102 6.08217 17.6953 5.94607 17.46 5.94607H11.4835L9.52699 0.358192C9.44113 0.115154 9.27209 0 9.0081 0C8.74433 0 8.56494 0.115154 8.48034 0.358192L6.52377 5.94607H0.54632C0.28233 5.94607 0.116099 6.06313 0.0274329 6.30501C0.0099101 6.37235 0.000816679 6.43525 0 6.4941V6.51269C0.00287893 6.67324 0.0703956 6.80222 0.203727 6.90544L4.9972 10.6149L3.25574 16.2994C3.17951 16.5487 3.25574 16.7542 3.45133 16.8997C3.66763 17.0257 3.89272 17.0409 4.09749 16.8997L9.0081 13.5101L13.9086 16.8997C14.0137 16.9722 14.1248 16.9965 14.2318 16.9965C14.5354 16.9965 14.7697 16.7636 14.7697 16.4636C14.7697 16.4155 14.7637 16.3467 14.7311 16.2408L13.0089 10.6149L17.8023 6.90544C17.9278 6.80822 17.9936 6.68941 18 6.54885V6.50187C17.9972 6.44022 17.9836 6.37456 17.9593 6.30501Z" fill="#DBC15E"/>
<path d="M38.9593 6.30501C38.9102 6.08217 38.6953 5.94607 38.46 5.94607H32.4835L30.527 0.358192C30.4411 0.115154 30.2721 0 30.0081 0C29.7443 0 29.5649 0.115154 29.4803 0.358192L27.5238 5.94607H21.5463C21.2823 5.94607 21.1161 6.06313 21.0274 6.30501C21.0099 6.37235 21.0008 6.43525 21 6.4941V6.51269C21.0029 6.67324 21.0704 6.80222 21.2037 6.90544L25.9972 10.6149L24.2557 16.2994C24.1795 16.5487 24.2557 16.7542 24.4513 16.8997C24.6676 17.0257 24.8927 17.0409 25.0975 16.8997L30.0081 13.5101L34.9086 16.8997C35.0137 16.9722 35.1248 16.9965 35.2318 16.9965C35.5354 16.9965 35.7697 16.7636 35.7697 16.4636C35.7697 16.4155 35.7637 16.3467 35.7311 16.2408L34.0089 10.6149L38.8023 6.90544C38.9278 6.80822 38.9936 6.68941 39 6.54885V6.50187C38.9972 6.44022 38.9836 6.37456 38.9593 6.30501Z" fill="#DBC15E"/>
<path d="M59.9593 6.30501C59.9102 6.08217 59.6953 5.94607 59.46 5.94607H53.4835L51.527 0.358192C51.4411 0.115154 51.2721 0 51.0081 0C50.7443 0 50.5649 0.115154 50.4803 0.358192L48.5238 5.94607H42.5463C42.2823 5.94607 42.1161 6.06313 42.0274 6.30501C42.0099 6.37235 42.0008 6.43525 42 6.4941V6.51269C42.0029 6.67324 42.0704 6.80222 42.2037 6.90544L46.9972 10.6149L45.2557 16.2994C45.1795 16.5487 45.2557 16.7542 45.4513 16.8997C45.6676 17.0257 45.8927 17.0409 46.0975 16.8997L51.0081 13.5101L55.9086 16.8997C56.0137 16.9722 56.1248 16.9965 56.2318 16.9965C56.5354 16.9965 56.7697 16.7636 56.7697 16.4636C56.7697 16.4155 56.7637 16.3467 56.7311 16.2408L55.0089 10.6149L59.8023 6.90544C59.9278 6.80822 59.9936 6.68941 60 6.54885V6.50187C59.9972 6.44022 59.9836 6.37456 59.9593 6.30501Z" fill="#DBC15E"/>
<path d="M80.9593 6.30501C80.9102 6.08217 80.6953 5.94607 80.46 5.94607H74.4835L72.527 0.358192C72.4411 0.115154 72.2721 0 72.0081 0C71.7443 0 71.5649 0.115154 71.4803 0.358192L69.5238 5.94607H63.5463C63.2823 5.94607 63.1161 6.06313 63.0274 6.30501C63.0099 6.37235 63.0008 6.43525 63 6.4941V6.51269C63.0029 6.67324 63.0704 6.80222 63.2037 6.90544L67.9972 10.6149L66.2557 16.2994C66.1795 16.5487 66.2557 16.7542 66.4513 16.8997C66.6676 17.0257 66.8927 17.0409 67.0975 16.8997L72.0081 13.5101L76.9086 16.8997C77.0137 16.9722 77.1248 16.9965 77.2318 16.9965C77.5354 16.9965 77.7697 16.7636 77.7697 16.4636C77.7697 16.4155 77.7637 16.3467 77.7311 16.2408L76.0089 10.6149L80.8023 6.90544C80.9278 6.80822 80.9936 6.68941 81 6.54885V6.50187C80.9972 6.44022 80.9836 6.37456 80.9593 6.30501Z" fill="#DBC15E"/>
<path d="M101.959 6.30501C101.91 6.08217 101.695 5.94607 101.46 5.94607H95.4835L93.527 0.358192C93.4411 0.115154 93.2721 0 93.0081 0C92.7443 0 92.5649 0.115154 92.4803 0.358192L90.5238 5.94607H84.5463C84.2823 5.94607 84.1161 6.06313 84.0274 6.30501C84.0099 6.37235 84.0008 6.43525 84 6.4941V6.51269C84.0029 6.67324 84.0704 6.80222 84.2037 6.90544L88.9972 10.6149L87.2557 16.2994C87.1795 16.5487 87.2557 16.7542 87.4513 16.8997C87.6676 17.0257 87.8927 17.0409 88.0975 16.8997L93.0081 13.5101L97.9086 16.8997C98.0137 16.9722 98.1248 16.9965 98.2318 16.9965C98.5354 16.9965 98.7697 16.7636 98.7697 16.4636C98.7697 16.4155 98.7637 16.3467 98.7311 16.2408L97.0089 10.6149L101.802 6.90544C101.928 6.80822 101.994 6.68941 102 6.54885V6.50187C101.997 6.44022 101.984 6.37456 101.959 6.30501Z" fill="#DBC15E"/>
</svg>
