<svg xmlns="http://www.w3.org/2000/svg" width="26" height="30" viewBox="0 0 26 30" fill="none">
  <path d="M4.99989 0C3.67426 0.00137651 2.40332 0.528592 1.46596 1.46596C0.528591 2.40332 0.00137651 3.67426 0 4.99989V24.9995C0.00137651 26.3251 0.528591 27.596 1.46596 28.5334C2.40332 29.4708 3.67426 29.998 4.99989 29.9994H16.1797C16.5827 30.0085 16.982 29.9193 17.3428 29.7394C17.6982 29.6056 18.0204 29.3964 18.2872 29.1262L25.1271 22.2863C25.3662 22.058 25.5545 21.7818 25.6797 21.4757C25.6903 21.4557 25.6935 21.4337 25.7035 21.4141C25.7137 21.3889 25.7311 21.3661 25.7403 21.3409C25.7439 21.3309 25.7403 21.3209 25.7437 21.3101C25.9096 20.9562 25.9968 20.5705 25.9994 20.1796V4.99989C25.9981 3.67426 25.4709 2.40332 24.5335 1.46596C23.5961 0.528592 22.3252 0.00137651 20.9996 0H4.99989ZM17.9996 26.5854V22.9995C17.9999 22.7344 18.1054 22.4802 18.2929 22.2928C18.4803 22.1053 18.7345 21.9999 18.9996 21.9995H22.5855L17.9996 26.5854ZM23.9995 4.99989V19.9996H18.9996C18.2042 20.0005 17.4417 20.3168 16.8793 20.8792C16.3169 21.4416 16.0006 22.2042 15.9997 22.9995V27.9994H4.99989C4.20454 27.9985 3.44201 27.6822 2.87961 27.1198C2.31721 26.5574 2.00086 25.7948 1.99996 24.9995V4.99989C2.00086 4.20454 2.31721 3.44201 2.87961 2.87961C3.44201 2.31721 4.20454 2.00086 4.99989 1.99996H20.9996C21.7949 2.00086 22.5574 2.31721 23.1198 2.87961C23.6822 3.44201 23.9986 4.20454 23.9995 4.99989Z" fill="#1E4483"/>
  <path d="M17.2927 8.95944L11.3328 14.9193L8.70688 12.2924C8.51828 12.1102 8.26569 12.0094 8.0035 12.0117C7.74131 12.014 7.4905 12.1191 7.30509 12.3046C7.11969 12.49 7.01452 12.7408 7.01224 13.003C7.00997 13.2651 7.11076 13.5177 7.29291 13.7063L10.6258 17.0403C10.8134 17.2277 11.0677 17.333 11.3328 17.333C11.598 17.333 11.8523 17.2277 12.0398 17.0403L18.7067 10.3724C18.8888 10.1838 18.9896 9.93122 18.9873 9.66902C18.9851 9.40683 18.8799 9.15603 18.6945 8.97062C18.5091 8.78522 18.2583 8.68005 17.9961 8.67777C17.7339 8.67549 17.4813 8.77729 17.2927 8.95944Z" fill="#0556BF"/>
</svg>