<svg xmlns="http://www.w3.org/2000/svg" width="19" height="21" viewBox="0 0 19 21" fill="none">
  <g clip-path="url(#clip0_549_35395)">
    <path fill-rule="evenodd" clip-rule="evenodd" d="M5.46781 19.0209C6.44178 19.1138 7.698 19.1152 9.5 19.1152C11.302 19.1152 12.5582 19.1138 13.5322 19.0209C14.4866 18.9298 15.0292 18.7605 15.4375 18.5123C16.0874 18.1174 16.6271 17.5493 17.0022 16.8652C17.238 16.4354 17.3989 15.8643 17.4853 14.8596C17.5737 13.8344 17.575 12.5121 17.575 10.6152C17.575 8.7184 17.5737 7.39606 17.4853 6.37082C17.3989 5.36621 17.238 4.79504 17.0022 4.36524C16.6271 3.68115 16.0874 3.11308 15.4375 2.71812C15.0292 2.46998 14.4866 2.30065 13.5322 2.2096C12.5582 2.11668 11.302 2.11524 9.5 2.11524C7.698 2.11524 6.44178 2.11668 5.46781 2.2096C4.51342 2.30065 3.97081 2.46998 3.5625 2.71812C2.91261 3.11308 2.37295 3.68115 1.99775 4.36524C1.762 4.79504 1.60114 5.36621 1.51464 6.37082C1.42637 7.39606 1.425 8.7184 1.425 10.6152C1.425 12.5121 1.42637 13.8344 1.51464 14.8596C1.60114 15.8643 1.762 16.4354 1.99775 16.8652C2.37295 17.5493 2.91261 18.1174 3.5625 18.5123C3.97081 18.7605 4.51342 18.9298 5.46781 19.0209ZM0.763655 3.61524C0 5.00754 0 6.87677 0 10.6152C0 14.3537 0 16.2229 0.763655 17.6152C1.26394 18.5273 1.98349 19.2848 2.85 19.8114C4.17269 20.6152 5.94846 20.6152 9.5 20.6152C13.0516 20.6152 14.8273 20.6152 16.15 19.8114C17.0165 19.2848 17.736 18.5273 18.2364 17.6152C19 16.2229 19 14.3537 19 10.6152C19 6.87677 19 5.00754 18.2364 3.61524C17.736 2.70312 17.0165 1.9457 16.15 1.41909C14.8273 0.615234 13.0516 0.615234 9.5 0.615234C5.94846 0.615234 4.17269 0.615234 2.85 1.41909C1.98349 1.9457 1.26394 2.70312 0.763655 3.61524Z" fill="#2C2C2C"/>
    <path d="M6.6708 6.10519C6.30378 5.71884 5.70871 5.71884 5.34168 6.10519C4.97465 6.49153 4.97465 7.11793 5.34168 7.50427L8.48732 10.8155L5.43031 14.0334C5.06328 14.4197 5.06328 15.0462 5.43031 15.4325C5.79735 15.8187 6.39241 15.8187 6.75944 15.4325L9.8165 12.2145L12.8734 15.4324C13.2404 15.8187 13.8355 15.8187 14.2025 15.4324C14.5696 15.046 14.5696 14.4197 14.2025 14.0334L11.1456 10.8155L14.2911 7.50432C14.6582 7.11798 14.6582 6.49158 14.2911 6.10524C13.9241 5.7189 13.3291 5.7189 12.9621 6.10524L9.8165 9.41639L6.6708 6.10519Z" fill="#EB6450"/>
  </g>
  <defs>
    <clipPath id="clip0_549_35395">
      <rect width="19" height="21" fill="white"/>
    </clipPath>
  </defs>
</svg>