<svg xmlns="http://www.w3.org/2000/svg" width="27" height="31" viewBox="0 0 27 31" fill="none">
  <path d="M25.2087 18.589C24.8683 18.0585 24.688 17.451 24.688 16.831V12.3684C24.688 11.8514 24.2607 11.4322 23.7336 11.4322C23.2066 11.4322 22.7792 11.8514 22.7792 12.3684V16.831C22.7792 17.8057 23.0624 18.7585 23.599 19.5959L24.5194 20.9961C24.7527 21.3529 24.7654 21.7888 24.5576 22.1622C24.3487 22.5367 23.9648 22.7603 23.5311 22.7603H3.08595C2.65329 22.7603 2.26835 22.5367 2.05945 22.1622C1.8516 21.7888 1.86539 21.3539 2.09656 21.0003L3.02444 19.5876C3.55678 18.7586 3.83991 17.8047 3.83991 16.831V11.1617C3.83991 6.0396 8.08801 1.87242 13.3096 1.87242C14.2778 1.87242 15.2205 2.01181 16.1091 2.28644C16.6128 2.44143 17.1473 2.16889 17.3064 1.67478C17.4644 1.18171 17.1865 0.656388 16.6828 0.500353C15.6065 0.168518 14.4718 0 13.3085 0C7.03394 0 1.93007 5.00665 1.93007 11.1617V16.831C1.93007 17.451 1.7498 18.0595 1.4147 18.5817L0.490007 19.9881C-0.123984 20.9295 -0.16322 22.079 0.385024 23.061C0.934328 24.045 1.94386 24.6328 3.08489 24.6328H23.53C24.6711 24.6328 25.6806 24.0461 26.2299 23.062C26.7792 22.079 26.74 20.9306 26.1249 19.985L25.2087 18.589Z" fill="#717171"/>
  <path d="M18.5145 26.5207C18.0543 26.27 17.4732 26.4302 17.2155 26.8827C16.4286 28.2683 14.9313 29.1285 13.3089 29.1285C11.6864 29.1285 10.1901 28.2683 9.40222 26.8837C9.14453 26.4323 8.56236 26.27 8.10319 26.5217C7.64296 26.7734 7.47753 27.3435 7.73416 27.795C8.85716 29.7724 10.9929 31.001 13.3078 31.001C15.6217 31.001 17.7563 29.7724 18.8814 27.795C19.1391 27.3425 18.9737 26.7724 18.5145 26.5207Z" fill="#717171"/>
  <path d="M22.4669 9.77683C24.9664 9.77683 27.0003 7.7827 27.0003 5.32982C27.0003 2.87694 24.9664 0.882812 22.4669 0.882812C19.9675 0.882812 17.9336 2.87694 17.9336 5.32982C17.9336 7.7827 19.9675 9.77683 22.4669 9.77683ZM22.4669 2.75524C23.9134 2.75524 25.0915 3.9099 25.0915 5.32982C25.0915 6.74974 23.9144 7.9044 22.4669 7.9044C21.0195 7.9044 19.8424 6.74974 19.8424 5.32982C19.8424 3.9099 21.0205 2.75524 22.4669 2.75524Z" fill="#0556BF"/>
</svg>