<svg xmlns="http://www.w3.org/2000/svg" width="26" height="28" viewBox="0 0 26 28" fill="none">
  <path d="M23.4002 24.7004V15.0947L13.0001 6.86133L2.59998 15.0947V24.7003H0V27.4448H26.0002V24.7003H23.4002V24.7004ZM11.7001 21.9559H9.10004V19.2114H11.7001V21.9559ZM11.7001 16.467H9.10004V13.7225H11.7001V16.467ZM16.9001 21.9559H14.3001V19.2114H16.9001V21.9559ZM16.9001 16.467H14.3001V13.7225H16.9001V16.467Z" fill="#0556BF"/>
  <path d="M25.4735 9.87485L13.7612 0.274323C13.5009 0.137194 13.2407 0 12.9804 0C12.7201 0 12.4599 0.137129 12.1996 0.274323L5.17219 6.03465V2.74303C5.17219 1.92013 4.65167 1.37155 3.87085 1.37155C3.09003 1.37155 2.56951 1.92013 2.56951 2.74303V8.09191L0.487282 9.87485C-0.0332436 10.2863 -0.163421 11.2463 0.226989 11.795C0.617398 12.4808 1.52833 12.4808 2.04892 12.0693L12.9804 3.15449L23.9118 12.0693C24.4324 12.4808 25.3434 12.4808 25.7338 11.795C26.1242 11.2464 26.1242 10.2864 25.4735 9.87485Z" fill="#1E4483"/>
</svg>