<svg xmlns="http://www.w3.org/2000/svg" width="53" height="55" viewBox="0 0 53 55" fill="none">
  <path d="M46.8947 49.5001V30.25L26.0526 13.75L5.21044 30.25V49.5H0V55H52.1053V49.5H46.8947V49.5001ZM23.4473 44H18.2368V38.5H23.4473V44ZM23.4473 33.0001H18.2368V27.5H23.4473V33.0001ZM33.8684 44H28.6578V38.5H33.8684V44ZM33.8684 33.0001H28.6578V27.5H33.8684V33.0001Z" fill="#0556BF"/>
  <path d="M51.0497 19.7895L27.5779 0.549752C27.0563 0.27494 26.5347 0 26.0131 0C25.4915 0 24.97 0.274811 24.4483 0.549752L10.3652 12.0936V5.49713C10.3652 3.848 9.32209 2.74863 7.75731 2.74863C6.19252 2.74863 5.14937 3.848 5.14937 5.49713V16.2165L0.976529 19.7895C-0.0666213 20.6141 -0.327501 22.538 0.454892 23.6375C1.23729 25.0118 3.06283 25.0118 4.1061 24.1873L26.0131 6.32169L47.9201 24.1873C48.9633 25.0118 50.7889 25.0118 51.5713 23.6375C52.3537 22.5381 52.3537 20.6142 51.0497 19.7895Z" fill="#1E4483"/>
</svg>