<svg xmlns="http://www.w3.org/2000/svg" width="52" height="52" viewBox="0 0 52 52" fill="none">
  <path d="M33.8427 5.92125V4.35552C33.8427 1.95416 31.8885 0 29.4866 0H4.35604C1.95416 0 0 1.95416 0 4.35552V5.92125H33.8427Z" fill="white"/>
  <path d="M0 10.082V18.5248C0 20.9272 1.95416 22.8808 4.35604 22.8808H29.4866C31.8885 22.8808 33.8427 20.9266 33.8427 18.5248V10.082H0ZM5.64409 18.4275V14.2675H18.6618V18.4275H5.64409Z" fill="white"/>
  <path d="M16.2875 44.5683L8.85613 37.137V42.4883H8.64813C6.17345 42.4883 4.16 40.4754 4.16 38.0007V27.7109H0V38.0007C0 42.7691 3.8792 46.6483 8.64813 46.6483H8.85613V51.9996L16.2875 44.5683Z" fill="#0556BF"/>
  <path d="M52.0009 35.0423V33.4766C52.0009 31.0747 50.0467 29.1211 47.6448 29.1211H22.5142C20.1124 29.1211 18.1582 31.0753 18.1582 33.4766V35.0423H52.0009Z" fill="white"/>
  <path d="M18.1582 39.2012V47.6439C18.1582 50.0458 20.1124 51.9999 22.5142 51.9999H47.6448C50.0467 51.9999 52.0009 50.0458 52.0009 47.6439V39.2012H18.1582ZM23.8018 47.5461V43.3861H33.1795V47.5461H23.8018Z" fill="white"/>
  <path d="M35.7129 7.43133L43.1442 14.8627V9.51133H43.3522C45.8269 9.51133 47.8403 11.5243 47.8403 13.9989V24.2887H52.0003V13.9989C52.0003 9.23053 48.1211 5.35133 43.3522 5.35133H43.1442V0L35.7129 7.43133Z" fill="#0556BF"/>
</svg>