<svg xmlns="http://www.w3.org/2000/svg" width="46" height="58" viewBox="0 0 46 58" fill="none">
  <path d="M22.8959 27.4735C26.6702 27.4735 29.9384 26.1198 32.6087 23.449C35.279 20.7785 36.6327 17.5111 36.6327 13.7363C36.6327 9.96284 35.279 6.69498 32.6083 4.02369C29.9375 1.3537 26.6697 0 22.8959 0C19.1213 0 15.8539 1.3537 13.1836 4.02412C10.5133 6.69454 9.15918 9.9624 9.15918 13.7363C9.15918 17.5111 10.5133 20.779 13.184 23.4494C15.8548 26.1194 19.1226 27.4735 22.8959 27.4735Z" fill="#0556BF"/>
  <path d="M45.6782 44.3553C45.6041 43.2047 45.4542 41.9496 45.2336 40.6242C45.0108 39.2889 44.724 38.0266 44.3806 36.8729C44.026 35.6804 43.5436 34.5028 42.9473 33.3743C42.3284 32.2029 41.6015 31.183 40.7859 30.3437C39.9329 29.4657 38.8886 28.7597 37.681 28.2448C36.4776 27.7326 35.144 27.4731 33.7174 27.4731C33.1571 27.4731 32.6153 27.7204 31.5689 28.4534C30.9249 28.9053 30.1716 29.4278 29.3308 30.0058C28.6119 30.4987 27.6379 30.9605 26.4349 31.3785C25.2612 31.7871 24.0695 31.9944 22.8933 31.9944C21.7171 31.9944 20.5259 31.7871 19.3509 31.3785C18.1492 30.9609 17.1752 30.4991 16.4571 30.0063C15.6243 29.4337 14.8706 28.9111 14.217 28.453C13.1718 27.72 12.6296 27.4727 12.0693 27.4727C10.6423 27.4727 9.30908 27.7326 8.10609 28.2453C6.89932 28.7593 5.85461 29.4652 5.00083 30.3442C4.18557 31.1839 3.45825 32.2034 2.84021 33.3743C2.24436 34.5028 1.76199 35.6799 1.40691 36.8733C1.06398 38.0271 0.777153 39.2889 0.554391 40.6242C0.333723 41.9478 0.18382 43.2033 0.109706 44.3566C0.0368478 45.4865 0 46.6592 0 47.8435C0 50.9259 0.910726 53.4212 2.70664 55.2615C4.48035 57.0775 6.8273 57.9988 9.68133 57.9988H36.1079C38.9619 57.9988 41.308 57.078 43.0821 55.2615C44.8785 53.4226 45.7892 50.9268 45.7892 47.8431C45.7888 46.6533 45.7515 45.4797 45.6782 44.3553Z" fill="#1E4483"/>
</svg>