<svg width="40" height="40" viewBox="0 0 40 40" fill="none" xmlns="http://www.w3.org/2000/svg">
<circle cx="20" cy="20" r="20" fill="#D9D9D9"/>
<path d="M19.3372 18.2172L18.054 20.4166C17.8863 20.7062 18.0969 21.0654 18.4323 21.0654H20.9969C21.6892 21.0654 22.1221 20.3239 21.775 19.7291L20.4918 17.5297C20.324 17.2401 19.9028 17.2401 19.7351 17.5297L18.4518 19.7291C18.1067 20.3219 18.5377 21.0654 19.23 21.0654H21.7945C22.1319 21.0654 22.3425 20.7043 22.1728 20.4166L20.8896 18.2172C20.5444 17.6244 19.6785 17.6244 19.3314 18.2172H19.3372Z" fill="#EB6450"/>
<path d="M28.6494 27.0071C28.2398 25.9837 27.2452 25.3465 26.1531 25.3272H20.556V22.0252H21.9602C22.0382 22.0252 22.0967 22.0252 22.1552 21.9866C22.3307 21.9479 22.4867 21.8707 22.6232 21.7355C22.7207 21.639 22.7792 21.5424 22.8378 21.4459C22.9353 21.2528 22.9548 21.0404 22.8963 20.8087C22.8768 20.7121 22.8182 20.6156 22.7597 20.519C22.7597 20.4804 22.7207 20.4611 22.7012 20.4225C22.4867 20.0556 22.2722 19.6887 22.0577 19.3025C21.8041 18.8777 21.5506 18.4335 21.2971 17.9894C21.1216 17.6805 20.9461 17.3329 20.7315 17.0432C20.6145 16.8888 20.478 16.7729 20.322 16.6957C20.283 16.6957 20.244 16.657 20.1855 16.657C20.1075 16.6377 20.01 16.6184 19.8929 16.6184C19.6004 16.6184 19.3859 16.7536 19.2104 16.9274C19.1714 16.9853 19.1129 17.0432 19.0739 17.1012L19.0348 17.1784C18.9178 17.3522 18.8398 17.526 18.7423 17.6805C18.5278 18.028 18.3328 18.3949 18.1183 18.7425C18.0012 18.9356 17.8842 19.148 17.7672 19.3411C17.6502 19.5342 17.5332 19.7466 17.4162 19.9397C17.2407 20.2294 17.0066 20.5576 16.9481 20.8666C16.9091 21.0404 16.9481 21.1949 16.9676 21.33V21.3687C16.9676 21.388 16.9676 21.4073 17.0066 21.4459C17.0651 21.5617 17.1431 21.6776 17.2602 21.7742C17.3772 21.89 17.5137 21.9479 17.6697 21.9866C17.7477 22.0059 17.8452 22.0252 17.9232 22.0252H19.3274V24.941C19.3274 25.6168 19.3859 26.3506 20.2245 26.5051C20.5755 26.563 21.0046 26.5244 21.3556 26.5244H25.568C26.0361 26.5244 26.5041 26.4858 26.9137 26.7175C27.6353 27.123 27.6353 27.8568 27.6353 28.5906C27.6353 29.3243 27.5767 29.1505 27.6353 29.3629H13.3012C12.9502 29.3629 12.5992 29.3243 12.2481 29.3629V21.5038C12.2481 21.1562 12.2286 20.8087 12.2871 20.4804C12.3651 20.017 12.5992 19.5535 12.8332 19.2446C13.2232 18.7232 13.6523 18.2211 14.0423 17.7191C14.7054 16.8694 15.388 16.0391 16.051 15.1895C17.3382 13.5868 18.6253 11.9647 19.8929 10.362L19.9124 10.3234C20.01 10.4972 20.2635 10.7289 20.361 10.8641C20.751 11.3661 21.1411 11.8489 21.5506 12.3509C22.1162 13.0654 22.6817 13.7605 23.2473 14.475C23.2863 14.5716 23.3448 14.6488 23.4423 14.7067C23.4813 14.7647 23.5398 14.8226 23.5788 14.8805C24.2419 15.7108 24.905 16.5412 25.5485 17.3715C25.7826 17.6611 26.0166 17.9701 26.2506 18.2598C26.6211 18.7425 27.1087 19.2446 27.3622 19.7273C27.7133 20.3645 27.6158 21.1369 27.6158 21.8321C27.6158 22.5272 28.8249 22.6045 28.8249 21.8321C28.8249 21.0597 28.8639 20.1521 28.5128 19.3411C28.2593 18.7811 27.8303 18.2984 27.4402 17.8156C27.4597 17.7577 27.4792 17.6998 27.4792 17.6225V9.7634C27.4792 9.45444 27.2257 9.20341 26.9137 9.20341H23.7738C23.4618 9.20341 23.2083 9.45444 23.2083 9.7634V12.4861C22.4867 11.5785 21.7651 10.671 21.0436 9.78271C20.9265 9.62823 20.8095 9.45444 20.6535 9.29996C20.2245 8.87514 19.5224 8.91376 19.1324 9.33858C18.7033 9.80202 18.3523 10.3234 17.9622 10.8061C17.2797 11.6751 16.5776 12.544 15.895 13.3937C14.5689 15.0543 13.2232 16.715 11.9166 18.3949C11.234 19.2446 11 20.1907 11 21.2528V29.2857C11 29.7685 11.156 30.2126 11.6046 30.4443C11.9166 30.5988 12.2871 30.5602 12.6187 30.5602H27.4792C27.9083 30.5602 28.3178 30.4829 28.5909 30.0967C28.8444 29.7491 28.8054 29.363 28.8054 28.9574C28.8054 28.2816 28.8639 27.5864 28.6104 26.9685L28.6494 27.0071ZM18.5473 20.8087H18.2938C18.2938 20.7894 18.3328 20.7507 18.3328 20.7314C18.4108 20.6156 18.4693 20.4804 18.5473 20.3645C18.9958 19.5921 19.4639 18.8197 19.9124 18.028C19.9514 18.1053 19.9904 18.1632 20.0295 18.2404C20.322 18.7425 20.6145 19.2446 20.907 19.7466C21.1021 20.0942 21.3166 20.4418 21.5116 20.77C21.5116 20.77 21.5116 20.7894 21.5311 20.8087H18.5278H18.5473ZM24.3199 10.3234H26.3481V16.4446C25.9386 15.9233 25.529 15.4019 25.1 14.8805C24.8465 14.5523 24.5734 14.224 24.3199 13.8957V10.3234Z" fill="#1E4483"/>
</svg>
