<svg width="23" height="22" viewBox="0 0 23 22" fill="none" xmlns="http://www.w3.org/2000/svg">
<ellipse cx="11.5" cy="11" rx="11.5" ry="11" fill="#0556BF"/>
<path d="M17.0773 6.8297H15.109L14.8799 6.14356C14.7694 5.8104 14.5564 5.52052 14.2712 5.31519C13.9861 5.10987 13.6432 4.99957 13.2916 5H10.4597C10.1082 4.99973 9.76548 5.1101 9.48041 5.31541C9.19534 5.52072 8.98241 5.81052 8.87191 6.14356L8.64226 6.8297H6.67399C6.23017 6.83018 5.80467 7.00634 5.49084 7.31951C5.17701 7.63269 5.00049 8.05731 5 8.50021V15.2243C5.00097 15.6669 5.17771 16.0911 5.49148 16.4039C5.80526 16.7166 6.23049 16.8925 6.67399 16.893H17.0792C17.5227 16.8921 17.9477 16.7157 18.2611 16.4026C18.5746 16.0894 18.7508 15.6651 18.7513 15.2225V8.49838C18.7503 8.0558 18.5736 7.63165 18.2598 7.31887C17.946 7.00608 17.5208 6.83018 17.0773 6.8297ZM17.8346 15.2225C17.8343 15.4229 17.7545 15.6149 17.6125 15.7566C17.4705 15.8982 17.2781 15.9779 17.0773 15.9782H6.67399C6.47324 15.9779 6.28077 15.8982 6.13881 15.7566C5.99685 15.6149 5.917 15.4229 5.91675 15.2225V8.49838C5.91748 8.29836 5.99755 8.10676 6.13946 7.96549C6.28136 7.82423 6.47355 7.74479 6.67399 7.74455H8.97275C9.06892 7.74447 9.16262 7.71422 9.24061 7.65807C9.31859 7.60192 9.37691 7.52271 9.40729 7.43167L9.74145 6.43128C9.79163 6.28081 9.88803 6.14994 10.017 6.05723C10.1459 5.96453 10.3008 5.91471 10.4597 5.91485H13.2916C13.4506 5.91468 13.6056 5.96453 13.7345 6.05733C13.8635 6.15013 13.9598 6.28115 14.0099 6.43174L14.344 7.43167C14.3744 7.52271 14.4327 7.60192 14.5107 7.65807C14.5887 7.71422 14.6824 7.74447 14.7786 7.74455H17.0773C17.2781 7.74479 17.4705 7.82448 17.6125 7.96614C17.7545 8.1078 17.8343 8.29987 17.8346 8.50021V15.2225Z" fill="white"/>
<path d="M11.9691 8.15918C11.2891 8.15918 10.6245 8.3608 10.0591 8.73856C9.49378 9.11631 9.05314 9.65323 8.79294 10.2814C8.53274 10.9096 8.46466 11.6008 8.59731 12.2677C8.72996 12.9346 9.05738 13.5471 9.53817 14.0279C10.019 14.5087 10.6315 14.8361 11.2984 14.9688C11.9653 15.1014 12.6565 15.0333 13.2847 14.7731C13.9129 14.5129 14.4498 14.0723 14.8275 13.507C15.2053 12.9416 15.4069 12.2769 15.4069 11.597C15.4059 10.6855 15.0434 9.81168 14.3989 9.16717C13.7544 8.52266 12.8805 8.16015 11.9691 8.15918ZM11.9691 14.1181C11.4705 14.1181 10.983 13.9702 10.5684 13.6932C10.1539 13.4162 9.83072 13.0224 9.63991 12.5618C9.4491 12.1011 9.39917 11.5942 9.49645 11.1052C9.59372 10.6161 9.83383 10.1669 10.1864 9.81434C10.539 9.46176 10.9882 9.22165 11.4772 9.12438C11.9663 9.0271 12.4732 9.07702 12.9339 9.26784C13.3945 9.45865 13.7883 9.78178 14.0653 10.1964C14.3423 10.611 14.4902 11.0984 14.4902 11.597C14.4894 12.2654 14.2236 12.9062 13.7509 13.3789C13.2783 13.8515 12.6375 14.1174 11.9691 14.1181Z" fill="white"/>
<path d="M16.4275 9.64594C16.684 9.64594 16.892 9.43794 16.892 9.18137C16.892 8.92479 16.684 8.7168 16.4275 8.7168C16.1709 8.7168 15.9629 8.92479 15.9629 9.18137C15.9629 9.43794 16.1709 9.64594 16.4275 9.64594Z" fill="white"/>
</svg>
