<svg width="23" height="17" viewBox="0 0 23 17" fill="none" xmlns="http://www.w3.org/2000/svg">
<g id="Group 813">
<g id="Group">
<g id="Group_2">
<path id="Vector" d="M14.9031 9.04102L12.9768 10.9738C12.1956 11.7577 10.8212 11.7746 10.0232 10.9738L8.09679 9.04102L1.1781 15.9822C1.43564 16.1013 1.71959 16.1723 2.02146 16.1723H20.9785C21.2804 16.1723 21.5642 16.1013 21.8217 15.9822L14.9031 9.04102Z" fill="#B5B5B5"/>
</g>
</g>
<g id="Group_3">
<g id="Group_4">
<path id="Vector_2" d="M20.9785 0H2.0215C1.71962 0 1.43567 0.0710665 1.17822 0.190154L8.57133 7.60779C8.57182 7.60828 8.57241 7.60837 8.5729 7.60887C8.5734 7.60936 8.57348 7.61003 8.57348 7.61003L10.9774 10.0219C11.2327 10.2772 11.7674 10.2772 12.0227 10.0219L14.4261 7.61044C14.4261 7.61044 14.4267 7.60936 14.4272 7.60887C14.4272 7.60887 14.4283 7.60828 14.4288 7.60779L21.8217 0.190109C21.5643 0.0709767 21.2804 0 20.9785 0Z" fill="#B5B5B5"/>
</g>
</g>
<g id="Group_5">
<g id="Group_6">
<path id="Vector_3" d="M0.214996 1.13281C0.0817578 1.40225 0 1.70134 0 2.02173V14.1506C0 14.471 0.0816679 14.7701 0.214951 15.0395L7.14563 8.0864L0.214996 1.13281Z" fill="#B5B5B5"/>
</g>
</g>
<g id="Group_7">
<g id="Group_8">
<path id="Vector_4" d="M22.785 1.13281L15.8544 8.08649L22.785 15.0397C22.9182 14.7703 23 14.4712 23 14.1507V2.02182C23 1.70134 22.9182 1.40225 22.785 1.13281Z" fill="#B5B5B5"/>
</g>
</g>
</g>
</svg>
