<svg xmlns="http://www.w3.org/2000/svg" width="11" height="11" viewBox="0 0 11 11" fill="none">
  <path d="M7.94597 11C7.54519 11.0011 7.14818 10.9191 6.77795 10.7587C6.40772 10.5982 6.07164 10.3626 5.78919 10.0653L0.646409 4.68529C0.23252 4.25263 0 3.66583 0 3.05396C0 2.4421 0.23252 1.8553 0.646409 1.42264C1.0603 0.989989 1.62165 0.746926 2.20698 0.746926C2.79231 0.746926 3.35366 0.989989 3.76755 1.42264L8.9529 6.84679C9.08198 6.97846 9.18477 7.1356 9.25532 7.30911C9.32587 7.48262 9.36277 7.66904 9.36387 7.85756C9.36498 8.04609 9.33027 8.23297 9.26176 8.40737C9.19325 8.58177 9.09231 8.74022 8.96478 8.87353C8.83725 9.00684 8.68568 9.11236 8.51884 9.18397C8.35201 9.25559 8.17323 9.29187 7.99288 9.29071C7.81253 9.28956 7.63419 9.25099 7.46821 9.17724C7.30223 9.10349 7.1519 8.99604 7.02595 8.8611L3.7225 5.40604C3.61696 5.29581 3.55763 5.14627 3.55757 4.99031C3.5575 4.83435 3.6167 4.68476 3.72215 4.57443C3.8276 4.4641 3.97065 4.40208 4.11984 4.40202C4.26904 4.40195 4.41214 4.46383 4.51768 4.57406L7.82113 8.02913C7.84305 8.05327 7.86938 8.07258 7.89856 8.08591C7.92774 8.09924 7.95917 8.10633 7.99102 8.10674C8.02286 8.10716 8.05446 8.1009 8.08395 8.08834C8.11344 8.07578 8.14022 8.05717 8.16271 8.03361C8.18521 8.01004 8.20296 7.98201 8.21491 7.95115C8.22687 7.9203 8.23279 7.88725 8.23232 7.85397C8.23185 7.82068 8.22501 7.78783 8.2122 7.75736C8.19938 7.72688 8.18086 7.6994 8.15771 7.67654L2.97166 2.25313C2.76852 2.04103 2.49311 1.92198 2.206 1.92215C1.91889 1.92232 1.6436 2.04172 1.4407 2.25406C1.2378 2.4664 1.12391 2.75431 1.12408 3.05443C1.12424 3.35456 1.23846 3.64233 1.44159 3.85442L6.58437 9.23482C6.94587 9.61236 7.43603 9.82433 7.94703 9.82408C8.45802 9.82384 8.948 9.61141 9.30916 9.23353C9.67033 8.85564 9.8731 8.34326 9.87287 7.80909C9.87263 7.27493 9.66942 6.76274 9.30792 6.3852L4.16514 1.00517C4.11252 0.950692 4.07071 0.885879 4.04213 0.814458C4.01354 0.743038 3.99874 0.666416 3.99857 0.588996C3.9984 0.511576 4.01287 0.434884 4.04114 0.363327C4.06941 0.29177 4.11093 0.226757 4.16331 0.172025C4.21569 0.117293 4.2779 0.0739206 4.34637 0.0443994C4.41483 0.0148781 4.48821 -0.000210061 4.56227 2.20898e-06C4.63633 0.000214479 4.70962 0.015723 4.77793 0.0456363C4.84624 0.0755496 4.90823 0.119278 4.96032 0.17431L10.1045 5.55471C10.5319 6.00062 10.8231 6.56911 10.9411 7.18816C11.0592 7.80721 10.9988 8.44895 10.7676 9.0321C10.5365 9.61524 10.1449 10.1135 9.64263 10.4639C9.14031 10.8142 8.54982 11.0008 7.94597 11Z" fill="#EB6450"/>
</svg>