<svg xmlns="http://www.w3.org/2000/svg" width="11" height="11" viewBox="0 0 11 11" fill="none">
  <mask id="mask0_344_33231" style="mask-type:luminance" maskUnits="userSpaceOnUse" x="0" y="0" width="11" height="11">
    <path d="M0 0H11V11H0V0Z" fill="white"/>
  </mask>
  <g mask="url(#mask0_344_33231)">
    <path fill-rule="evenodd" clip-rule="evenodd" d="M6.05 6.05V7.7C6.05 8.0036 5.8036 8.25 5.5 8.25C5.1964 8.25 4.95 8.0036 4.95 7.7V6.6C4.95 6.2964 4.7036 6.05 4.4 6.05C4.0964 6.05 3.85 5.8036 3.85 5.5C3.85 5.1964 4.0964 4.95 4.4 4.95H4.95C5.55775 4.95 6.05 5.44225 6.05 6.05ZM9.9 9.35C9.9 9.6536 9.6536 9.9 9.35 9.9H1.65C1.3464 9.9 1.1 9.6536 1.1 9.35V3.85C1.1 3.5464 1.3464 3.3 1.65 3.3H9.35C9.6536 3.3 9.9 3.5464 9.9 3.85V9.35ZM9.9 1.1V0.55C9.9 0.2464 9.6536 0 9.35 0C9.0464 0 8.8 0.2464 8.8 0.55V1.1H6.05V0.55C6.05 0.2464 5.8036 0 5.5 0C5.1964 0 4.95 0.2464 4.95 0.55V1.1H2.2V0.55C2.2 0.2464 1.9536 0 1.65 0C1.3464 0 1.1 0.2464 1.1 0.55V1.1C0.49225 1.1 0 1.59225 0 2.2V9.9C0 10.5072 0.49225 11 1.1 11H9.9C10.5078 11 11 10.5072 11 9.9V2.2C11 1.59225 10.5078 1.1 9.9 1.1Z" fill="#EB6450"/>
  </g>
</svg>