<svg xmlns="http://www.w3.org/2000/svg" width="33" height="28" viewBox="0 0 33 28" fill="none">
  <path d="M24.3918 26.8002C25.9517 26.5611 27.8513 25.4338 28.7023 24.2012C29.2086 23.4541 30.7801 20.1099 31.3242 18.715C31.8869 17.3214 32.9398 13.97 32.9943 13.2189C33.0892 11.9816 31.9727 10.849 30.516 10.6086C29.6284 10.4576 21.3118 10.2708 19.5807 10.286C17.8606 10.2708 9.41322 10.4576 8.41986 10.6086C6.79524 10.849 4.88286 11.9823 4.09715 13.2189C3.61969 13.97 2.27321 17.3214 1.85087 18.715C1.39521 20.1099 0.654352 23.4534 0.67422 24.2012C0.69665 25.4338 1.87202 26.5611 3.27875 26.8002C4.14265 26.9506 12.085 27.136 13.7327 27.1208C15.3708 27.136 23.4318 26.9506 24.3918 26.8002Z" fill="#1E4483"/>
  <path d="M10.1954 1.18475C9.90866 0.775676 9.46103 0.459157 8.99532 0.367891C8.56708 0.281803 6.70295 0.17565 5.90653 0.184064C5.1114 0.17565 3.22983 0.281803 2.78802 0.367891C2.06524 0.505114 1.30305 1.1511 1.06988 1.85728C1.0337 1.96731 -0.0178552 5.47232 0.000230624 15.6171C0.00927352 16.1161 0.0428614 16.8605 0.10164 17.6936C0.594478 16.2495 1.84627 13.2604 2.41404 12.3975C2.41597 12.3943 2.41791 12.3917 2.41985 12.3885C2.42179 12.3852 2.42373 12.3827 2.42566 12.3794C3.50693 10.7509 5.89684 9.34304 8.06778 9.02976C9.2763 8.8537 17.6526 8.69511 19.3016 8.69511C19.3875 8.69511 19.4651 8.69511 19.5329 8.69576C19.6013 8.69576 19.6789 8.69511 19.7648 8.69511C21.0605 8.69511 26.1135 8.78573 28.9588 8.90936C28.9058 8.49252 28.8535 8.16888 28.8064 7.98699C28.3742 6.40958 26.7136 4.96744 25.0852 4.66128C24.0853 4.46904 15.275 4.23149 13.4632 4.25091C12.5621 4.24055 11.7314 3.76157 11.269 2.98677L10.1942 1.18605L10.1954 1.18475Z" fill="#717171"/>
</svg>