<svg xmlns="http://www.w3.org/2000/svg" width="19" height="19" viewBox="0 0 19 19" fill="none">
  <path fill-rule="evenodd" clip-rule="evenodd" d="M4.63867 0H14.3613C16.9162 0 19 2.08377 19 4.63867V14.3613C19 16.9162 16.9162 19 14.3613 19H4.63867C2.08377 19 0 16.9162 0 14.3613V4.63867C0 2.08377 2.08377 0 4.63867 0ZM15.0664 4.80325C15.0664 4.57259 14.9747 4.35138 14.8116 4.18826C14.6486 4.02514 14.4274 3.93346 14.1967 3.93337H4.80344C4.57371 3.93487 4.3539 4.02718 4.19199 4.19016C4.03008 4.35313 3.9392 4.57354 3.9392 4.80327C3.9392 5.033 4.03008 5.25341 4.19199 5.41638C4.3539 5.57936 4.57371 5.67167 4.80344 5.67317H12.097L4.18846 13.5812C4.1076 13.6619 4.04344 13.7578 3.99965 13.8633C3.95586 13.9689 3.9333 14.082 3.93325 14.1963C3.9332 14.3105 3.95567 14.4237 3.99938 14.5293C4.04308 14.6348 4.10716 14.7308 4.18795 14.8116C4.26874 14.8924 4.36467 14.9565 4.47024 15.0002C4.57581 15.0439 4.68896 15.0664 4.80323 15.0663C4.91749 15.0663 5.03063 15.0437 5.13617 15C5.24172 14.9562 5.3376 14.892 5.41834 14.8112L13.3269 6.90316V14.1967C13.3269 14.4274 13.4186 14.6486 13.5817 14.8117C13.7448 14.9748 13.966 15.0665 14.1967 15.0665C14.4273 15.0665 14.6486 14.9748 14.8117 14.8117C14.9748 14.6486 15.0664 14.4274 15.0664 14.1967V4.80325Z" fill="#EB6450"/>
</svg>