<svg xmlns="http://www.w3.org/2000/svg" width="24" height="17" viewBox="0 0 24 17" fill="none">
  <path d="M6.59375 1.61896C6.59375 0.908211 7.16993 0.332031 7.88068 0.332031H22.5766C23.2873 0.332031 23.8635 0.908211 23.8635 1.61896C23.8635 2.32972 23.2873 2.9059 22.5766 2.9059H7.88068C7.16993 2.9059 6.59375 2.32972 6.59375 1.61896Z" fill="#0556BF"/>
  <path d="M1.83779 3.23809C2.73197 3.23809 3.45684 2.51322 3.45684 1.61904C3.45684 0.72487 2.73197 0 1.83779 0C0.94362 0 0.21875 0.72487 0.21875 1.61904C0.21875 2.51322 0.94362 3.23809 1.83779 3.23809Z" fill="#1E4483"/>
  <path d="M6.59375 8.49982C6.59375 7.78907 7.16993 7.21289 7.88068 7.21289H22.5766C23.2873 7.21289 23.8635 7.78907 23.8635 8.49982C23.8635 9.21058 23.2873 9.78676 22.5766 9.78676H7.88068C7.16993 9.78676 6.59375 9.21058 6.59375 8.49982Z" fill="#0556BF"/>
  <path d="M1.83779 10.1189C2.73197 10.1189 3.45684 9.39407 3.45684 8.4999C3.45684 7.60573 2.73197 6.88086 1.83779 6.88086C0.94362 6.88086 0.21875 7.60573 0.21875 8.4999C0.21875 9.39407 0.94362 10.1189 1.83779 10.1189Z" fill="#1E4483"/>
  <path d="M6.59375 15.3807C6.59375 14.6699 7.16993 14.0938 7.88068 14.0938H22.5766C23.2873 14.0938 23.8635 14.6699 23.8635 15.3807C23.8635 16.0914 23.2873 16.6676 22.5766 16.6676H7.88068C7.16993 16.6676 6.59375 16.0914 6.59375 15.3807Z" fill="#0556BF"/>
  <path d="M1.83779 16.9998C2.73197 16.9998 3.45684 16.2749 3.45684 15.3808C3.45684 14.4866 2.73197 13.7617 1.83779 13.7617C0.94362 13.7617 0.21875 14.4866 0.21875 15.3808C0.21875 16.2749 0.94362 16.9998 1.83779 16.9998Z" fill="#1E4483"/>
</svg>