<svg xmlns="http://www.w3.org/2000/svg" width="13" height="13" viewBox="0 0 13 13" fill="none">
  <path d="M12.0662 0.95682C10.7555 -0.351437 8.72406 -0.286024 7.41343 0.95682L6.9547 1.41471L5.97173 0.49893C5.7096 0.237279 5.31641 0.237279 5.05429 0.49893L2.76068 2.78838C2.49855 3.05003 2.49855 3.44251 2.76068 3.70416C3.02281 3.96581 3.416 3.96581 3.67812 3.70416L5.51301 1.8726L6.03726 2.3959L0.860261 7.56352C0.729198 7.69435 0.663666 7.75976 0.663666 7.956L0.00834985 12.3387C-0.0571818 12.6657 0.270476 13.0582 0.729198 12.9928L5.11982 12.3387C5.25088 12.3387 5.38195 12.2732 5.51301 12.1424L12.0662 5.60113C13.3113 4.29288 13.3113 2.26508 12.0662 0.95682ZM11.1487 1.8726C11.7385 2.46132 11.8696 3.3771 11.5419 4.09664L8.92065 1.48012C9.6415 1.15306 10.4934 1.28388 11.1487 1.8726ZM5.25088 10.5725L4.33344 9.65673L9.77257 4.22746L10.69 5.14324L5.25088 10.5725ZM2.43302 7.75976L7.87215 2.33049L8.78959 3.24627L3.35046 8.67554L2.43302 7.75976ZM1.7777 9.0026L4.00578 11.2266L1.38451 11.6191L1.7777 9.0026Z" fill="white"/>
</svg>