<svg xmlns="http://www.w3.org/2000/svg" width="19" height="19" viewBox="0 0 19 19" fill="none">
  <path d="M10.1334 11.3999L10.1334 4.4332C10.1334 3.92929 10.3336 3.44602 10.6899 3.0897C11.0462 2.73338 11.5295 2.5332 12.0334 2.5332L15.8334 2.5332C16.3373 2.5332 16.8206 2.73338 17.1769 3.0897C17.5332 3.44602 17.7334 3.92929 17.7334 4.4332L17.7334 11.3999C17.7334 11.9038 17.5332 12.3871 17.1769 12.7434C16.8206 13.0997 16.3373 13.2999 15.8334 13.2999L12.0334 13.2999C11.5295 13.2999 11.0462 13.0997 10.6899 12.7434C10.3336 12.3871 10.1334 11.9038 10.1334 11.3999ZM16.4667 4.4332C16.4667 4.26523 16.4 4.10414 16.2812 3.98537C16.1625 3.8666 16.0014 3.79987 15.8334 3.79987L12.0334 3.79987C11.8654 3.79987 11.7043 3.8666 11.5856 3.98537C11.4668 4.10414 11.4001 4.26523 11.4001 4.4332L11.4001 11.3999C11.4001 11.5678 11.4668 11.7289 11.5856 11.8477C11.7043 11.9665 11.8654 12.0332 12.0334 12.0332L15.8334 12.0332C16.0014 12.0332 16.1625 11.9665 16.2812 11.8477C16.4 11.7289 16.4667 11.5678 16.4667 11.3999L16.4667 4.4332Z" fill="#0556BF"/>
  <path d="M1.26621 16.4665L1.26621 4.4332C1.26621 3.92929 1.46639 3.44602 1.82271 3.0897C2.17903 2.73338 2.6623 2.5332 3.16621 2.5332L6.96621 2.5332C7.47012 2.5332 7.95339 2.73338 8.30971 3.0897C8.66603 3.44602 8.86621 3.92929 8.86621 4.4332L8.86621 16.4665C8.86621 16.9704 8.66603 17.4537 8.30971 17.81C7.95339 18.1664 7.47012 18.3665 6.96621 18.3665L3.16621 18.3665C2.6623 18.3665 2.17903 18.1664 1.82271 17.81C1.46639 17.4537 1.26621 16.9704 1.26621 16.4665ZM7.59954 4.4332C7.59954 4.26523 7.53282 4.10414 7.41405 3.98537C7.29527 3.8666 7.13418 3.79987 6.96621 3.79987L3.16621 3.79987C2.99824 3.79987 2.83715 3.8666 2.71838 3.98537C2.5996 4.10414 2.53288 4.26523 2.53288 4.4332L2.53288 16.4665C2.53288 16.6345 2.5996 16.7956 2.71838 16.9144C2.83715 17.0331 2.99824 17.0999 3.16621 17.0999L6.96621 17.0999C7.13418 17.0999 7.29527 17.0331 7.41405 16.9144C7.53282 16.7956 7.59954 16.6345 7.59954 16.4665L7.59954 4.4332Z" fill="#0556BF"/>
  <path d="M-2.76839e-08 0.633332C-2.03417e-08 0.465362 0.0667267 0.304271 0.185499 0.185498C0.304272 0.0667252 0.465363 -8.10175e-07 0.633333 -8.02833e-07L18.3667 -2.76839e-08C18.5346 -2.03417e-08 18.6957 0.066726 18.8145 0.185499C18.9333 0.304272 19 0.465363 19 0.633333C19 0.801304 18.9333 0.962395 18.8145 1.08117C18.6957 1.19994 18.5346 1.26667 18.3667 1.26667L0.633333 1.26667C0.465362 1.26667 0.304272 1.19994 0.185499 1.08117C0.0667266 0.962394 -3.50261e-08 0.801303 -2.76839e-08 0.633332Z" fill="#1E4483"/>
</svg>