<svg xmlns="http://www.w3.org/2000/svg" width="74" height="72" viewBox="0 0 74 72" fill="none">
  <path d="M8.484 71.7728C6.0655 71.7728 4.04775 70.9643 2.43075 69.3473C0.813749 67.7303 0.0035 65.7108 0 63.2888V53.193C0 52.4475 0.250251 51.8245 0.750751 51.324C1.25125 50.8235 1.876 50.5715 2.625 50.568C3.374 50.5645 3.99875 50.8165 4.49925 51.324C4.99975 51.8315 5.25 52.4545 5.25 53.193V63.2888C5.25 64.0973 5.586 64.8393 6.258 65.5148C6.93 66.1903 7.67025 66.5263 8.47875 66.5228H65.0212C65.8262 66.5228 66.5665 66.1868 67.242 65.5148C67.9175 64.8428 68.2535 64.1008 68.25 63.2888V53.193C68.25 52.4475 68.5003 51.8245 69.0007 51.324C69.5013 50.8235 70.126 50.5715 70.875 50.568C71.624 50.5645 72.2487 50.8165 72.7493 51.324C73.2497 51.8315 73.5 52.4545 73.5 53.193V63.2888C73.5 65.7073 72.6915 67.725 71.0745 69.342C69.4575 70.959 67.438 71.7693 65.016 71.7728H8.484ZM34.125 8.3895L23.7773 18.7373C23.2663 19.2483 22.659 19.516 21.9555 19.5405C21.252 19.565 20.6115 19.2868 20.034 18.7058C19.474 18.1283 19.1887 17.5105 19.1782 16.8525C19.1677 16.191 19.453 15.5715 20.034 14.994L33.7785 1.239C34.2405 0.784 34.7095 0.46375 35.1855 0.27825C35.665 0.0927499 36.1865 0 36.75 0C37.3135 0 37.835 0.0927499 38.3145 0.27825C38.794 0.46375 39.263 0.78575 39.7215 1.24425L53.466 14.994C53.9805 15.505 54.25 16.107 54.2745 16.8C54.2955 17.493 54.0278 18.1283 53.4713 18.7058C52.8903 19.2868 52.2655 19.5825 51.597 19.593C50.9285 19.6035 50.3037 19.3183 49.7227 18.7373L39.375 8.3895V51.177C39.375 51.926 39.1248 52.5508 38.6243 53.0513C38.1238 53.5518 37.499 53.802 36.75 53.802C36.001 53.802 35.3762 53.5518 34.8757 53.0513C34.3752 52.5508 34.125 51.926 34.125 51.177V8.3895Z" fill="#1E4483"/>
</svg>